<?xml version="1.0" standalone="no"?>
<!DOCTYPE svg PUBLIC "-//W3C//DTD SVG 20010904//EN"
 "http://www.w3.org/TR/2001/REC-SVG-20010904/DTD/svg10.dtd">
<svg version="1.0" xmlns="http://www.w3.org/2000/svg"
 width="1386.000000pt" height="1013.000000pt" viewBox="0 0 1386.000000 1013.000000"
 preserveAspectRatio="xMidYMid meet">

<g transform="translate(0.000000,1013.000000) scale(0.100000,-0.100000)"
fill="#000000" stroke="none">
<path d="M7741 8544 c-29 -36 -34 -76 -22 -169 17 -142 23 -366 12 -490 -19
-219 -42 -409 -56 -480 -22 -105 -38 -328 -32 -437 4 -54 2 -98 -2 -98 -5 0
-14 28 -21 63 -7 34 -31 132 -53 217 -22 85 -40 173 -39 195 0 37 -1 37 -7 10
-6 -28 -9 -25 -55 68 -29 60 -54 97 -63 97 -12 0 -13 3 -4 14 8 10 9 16 1 21
-5 3 -10 17 -10 31 0 13 -6 24 -12 24 -8 0 -5 7 6 15 25 19 36 19 36 1 0 -7 7
-20 16 -27 15 -12 16 -11 9 11 -5 17 -4 22 3 15 5 -5 13 -21 17 -34 6 -18 4
-22 -6 -16 -9 5 -8 1 2 -11 9 -10 22 -36 29 -57 18 -57 22 -38 7 29 -19 80
-42 122 -71 130 -75 18 -102 -82 -42 -160 93 -122 179 -382 231 -701 27 -162
60 -319 72 -338 3 -5 8 -28 10 -50 6 -66 11 -54 17 40 14 200 28 311 71 563
106 613 125 767 99 777 -21 7 -101 -177 -140 -322 -25 -94 -44 -145 -30 -80
46 216 49 258 52 565 1 168 -3 325 -8 350 -5 25 -12 75 -16 111 -8 70 -4 80
40 99 20 8 18 9 -11 6 -24 -3 -31 -2 -23 6 6 6 27 11 46 12 27 1 32 -2 24 -12
-6 -7 -8 -15 -4 -19 3 -3 6 -1 6 5 0 7 5 12 10 12 6 0 8 -10 5 -22 -6 -26 16
-60 35 -56 7 2 15 -4 17 -12 4 -13 3 -13 -7 0 -10 13 -11 12 -6 -3 3 -10 6
-23 6 -28 0 -6 5 -7 11 -4 6 4 13 -2 16 -14 3 -12 9 -21 14 -21 9 0 -20 90
-45 138 -33 65 -99 82 -135 36z m-14 -106 c-3 -7 -5 -2 -5 12 0 14 2 19 5 13
2 -7 2 -19 0 -25z m-20 -1140 c-2 -13 -4 -5 -4 17 -1 22 1 32 4 23 2 -10 2
-28 0 -40z m-10 -85 c-3 -10 -5 -4 -5 12 0 17 2 24 5 18 2 -7 2 -21 0 -30z"/>
<path d="M7921 8344 c0 -11 3 -14 6 -6 3 7 2 16 -1 19 -3 4 -6 -2 -5 -13z"/>
<path d="M8530 7950 c0 -4 7 -10 15 -14 8 -3 15 -1 15 5 0 6 7 6 19 -1 28 -14
39 -12 16 3 -23 15 -65 20 -65 7z"/>
<path d="M8463 7908 c-11 -13 -28 -36 -38 -53 l-17 -30 21 27 c12 15 28 25 35
22 8 -3 17 -1 21 5 4 7 0 8 -11 4 -15 -6 -15 -4 1 20 21 33 16 35 -12 5z"/>
<path d="M8642 7870 c0 -14 2 -19 5 -12 2 6 2 18 0 25 -3 6 -5 1 -5 -13z"/>
<path d="M8605 7860 c-3 -5 -1 -10 4 -10 6 0 11 5 11 10 0 6 -2 10 -4 10 -3 0
-8 -4 -11 -10z"/>
<path d="M8548 7816 c-10 -7 -18 -17 -18 -21 0 -5 8 -1 18 7 9 9 24 18 32 21
13 5 13 5 0 6 -8 0 -23 -6 -32 -13z"/>
<path d="M8396 7812 c-3 -5 1 -9 9 -9 8 0 12 4 9 9 -3 4 -7 8 -9 8 -2 0 -6 -4
-9 -8z"/>
<path d="M8566 7793 c-6 -14 -5 -15 5 -6 7 7 10 15 7 18 -3 3 -9 -2 -12 -12z"/>
<path d="M8605 7770 c-3 -5 -1 -10 4 -10 6 0 11 5 11 10 0 6 -2 10 -4 10 -3 0
-8 -4 -11 -10z"/>
<path d="M8540 7699 c-19 -17 -26 -26 -15 -21 18 9 64 52 54 52 -2 0 -20 -14
-39 -31z"/>
<path d="M8313 7668 c3 -9 1 -19 -6 -21 -7 -2 -9 -7 -6 -11 12 -13 28 19 17
34 -8 13 -9 12 -5 -2z"/>
<path d="M8443 7634 c-24 -14 -43 -31 -43 -37 0 -8 3 -9 8 -1 4 5 24 20 45 33
20 12 37 25 37 27 0 6 -3 5 -47 -22z"/>
<path d="M8266 7584 c-9 -20 -15 -39 -12 -41 2 -3 12 12 21 32 10 19 16 38 13
40 -2 3 -12 -12 -22 -31z"/>
<path d="M8274 7525 c-4 -14 -4 -29 0 -32 3 -3 0 -13 -6 -22 -10 -13 -10 -14
1 -4 8 6 15 28 16 47 2 42 -2 46 -11 11z"/>
<path d="M8226 7504 c-5 -14 -4 -15 9 -4 17 14 19 20 6 20 -5 0 -12 -7 -15
-16z"/>
<path d="M7512 7430 c0 -14 2 -19 5 -12 2 6 2 18 0 25 -3 6 -5 1 -5 -13z"/>
<path d="M8172 7384 c-7 -14 -8 -23 -3 -20 5 4 11 1 13 -5 2 -7 12 1 23 17 18
28 18 29 0 14 -17 -14 -18 -13 -12 3 10 27 -8 20 -21 -9z"/>
<path d="M8148 7338 c-7 -17 15 -19 29 -3 4 4 3 5 -4 2 -6 -4 -13 -2 -15 5 -3
8 -6 6 -10 -4z"/>
<path d="M8048 7163 c-91 -162 -115 -212 -160 -333 -56 -151 -129 -464 -132
-567 0 -28 -4 -49 -8 -47 -4 3 -5 -3 -1 -13 5 -14 10 -10 25 22 9 22 18 46 18
53 0 6 4 12 8 12 5 0 16 33 26 73 11 39 23 76 27 82 5 5 9 23 9 41 0 45 10 70
21 52 6 -8 9 -2 9 20 0 18 9 53 20 78 12 24 18 50 14 56 -4 7 -3 8 4 4 8 -5
12 0 12 13 0 11 5 23 10 26 6 3 10 15 10 26 0 10 5 19 10 19 6 0 10 5 10 10 0
6 4 16 10 23 49 61 74 86 104 102 20 11 36 23 36 26 0 14 103 31 148 26 31 -4
40 -3 27 3 -19 8 -19 9 3 9 13 1 22 -5 22 -14 0 -8 5 -15 10 -15 6 0 10 5 10
11 0 5 5 7 10 4 6 -4 8 -11 5 -16 -4 -5 1 -9 10 -9 26 0 12 23 -26 43 -82 42
-222 -3 -327 -106 l-64 -62 7 35 c8 44 66 201 112 305 31 71 49 125 41 125 -2
0 -33 -53 -70 -117z"/>
<path d="M7917 7203 c-9 -26 -22 -64 -31 -84 -8 -20 -12 -46 -9 -59 4 -16 3
-21 -5 -16 -9 5 -12 -12 -12 -61 0 -37 -2 -86 -5 -108 -2 -22 1 -15 6 15 6 30
26 122 44 205 34 152 39 197 12 108z"/>
<path d="M6523 7072 c-46 -36 -57 -126 -22 -194 11 -22 61 -88 111 -145 49
-58 94 -116 100 -129 6 -13 14 -24 18 -24 4 0 19 -22 34 -50 29 -53 43 -65 31
-27 -4 12 -22 83 -40 157 -19 74 -34 128 -35 120 -1 -11 -4 -9 -11 5 -6 14 -7
8 -2 -20 3 -22 7 -50 7 -62 1 -11 4 -19 7 -17 4 2 10 -8 13 -24 4 -15 9 -36
13 -47 3 -13 -4 -8 -20 13 -14 19 -32 39 -40 45 -23 19 -99 125 -134 186 -30
54 -51 161 -31 161 4 0 8 5 8 11 0 5 -4 7 -10 4 -5 -3 -10 -1 -10 4 0 6 16 18
36 26 42 17 57 19 31 4 -18 -10 -18 -12 2 -25 16 -12 25 -12 41 -4 21 11 21
11 -4 31 -30 23 -64 24 -93 1z"/>
<path d="M6626 7031 c-7 -11 3 -41 14 -41 11 0 18 22 12 38 -5 14 -18 16 -26
3z m19 -11 c3 -5 1 -10 -4 -10 -6 0 -11 5 -11 10 0 6 2 10 4 10 3 0 8 -4 11
-10z"/>
<path d="M6655 6981 c-9 -16 18 -102 28 -88 5 7 7 -3 3 -25 -3 -23 -1 -38 5
-38 7 0 9 23 6 61 -5 57 -17 95 -17 53 0 -16 -2 -17 -10 -4 -13 20 -13 43 0
35 6 -3 10 -1 10 4 0 13 -17 14 -25 2z"/>
<path d="M8922 6968 c3 -7 13 -15 23 -17 17 -3 17 -2 3 13 -20 19 -31 21 -26
4z"/>
<path d="M8381 6931 c-9 -6 -10 -11 -2 -15 6 -4 11 -1 11 6 0 22 28 -14 36
-46 5 -22 4 -27 -6 -21 -9 5 -11 4 -6 -4 4 -6 12 -8 18 -5 15 9 2 -86 -16
-121 l-14 -27 -12 22 -12 22 -12 -23 c-13 -25 -11 -39 5 -39 6 0 8 4 4 9 -3 5
-1 12 5 16 17 10 11 -18 -9 -45 -19 -23 -20 -24 -39 -7 -18 16 -20 16 -41 -7
-14 -15 -20 -30 -16 -37 6 -8 4 -10 -4 -5 -14 9 -42 -24 -34 -39 4 -5 3 -7 -2
-3 -4 4 -24 -5 -43 -20 -20 -15 -32 -20 -28 -12 6 9 5 11 0 5 -5 -5 -22 -24
-37 -41 -15 -17 -30 -44 -33 -60 l-5 -29 33 31 c18 17 62 51 98 75 81 55 173
146 199 197 32 63 37 131 13 186 -21 47 -27 52 -51 37z m-57 -287 c3 -8 2 -12
-4 -9 -6 3 -10 10 -10 16 0 14 7 11 14 -7z m-9 -23 c3 -5 1 -12 -5 -16 -5 -3
-10 1 -10 9 0 18 6 21 15 7z"/>
<path d="M7207 6893 c-15 -15 -7 -43 13 -43 13 0 20 6 19 18 0 10 -3 12 -6 4
-2 -6 -9 -9 -14 -6 -6 3 -5 11 2 20 11 14 -1 20 -14 7z"/>
<path d="M8390 6866 c0 -20 4 -36 8 -36 12 0 13 58 1 65 -5 4 -9 -10 -9 -29z"/>
<path d="M6712 6830 c0 -14 2 -19 5 -12 2 6 2 18 0 25 -3 6 -5 1 -5 -13z"/>
<path d="M8127 6725 c-35 -33 -34 -39 2 -21 16 9 31 13 34 10 3 -3 3 3 0 15
-3 12 -6 21 -7 21 -1 0 -14 -11 -29 -25z"/>
<path d="M7310 6701 c-68 -72 -130 -277 -130 -432 0 -66 -3 -79 -16 -79 -9 0
-43 -12 -76 -27 -40 -18 -55 -29 -46 -34 17 -11 31 -11 24 0 -3 5 19 19 49 31
191 78 371 -49 494 -348 21 -52 26 -72 17 -72 -8 0 -16 9 -19 21 -3 12 -10 19
-14 16 -5 -3 -35 18 -66 48 -54 50 -167 125 -231 152 -43 20 -112 17 -121 -4
-12 -29 -23 -93 -15 -88 6 4 14 -51 24 -170 2 -16 6 -42 10 -57 15 -51 0 -51
-37 1 -22 31 -42 49 -49 45 -6 -4 -8 -3 -5 3 4 6 -13 48 -37 95 -43 82 -63
152 -68 235 -2 22 -7 39 -11 36 -5 -3 -6 -11 -3 -18 2 -7 0 -17 -6 -23 -6 -6
-10 -39 -10 -74 0 -79 38 -182 120 -318 67 -112 98 -185 112 -259 19 -101 10
-106 -43 -27 -20 30 -55 77 -79 104 -24 27 -65 78 -93 112 -91 113 -108 131
-182 191 -109 87 -183 104 -267 62 -63 -32 -96 -82 -96 -145 l0 -31 -44 45
c-62 62 -151 108 -211 108 -84 0 -145 -59 -145 -137 1 -43 33 -101 95 -173 59
-68 130 -193 119 -211 -8 -14 -233 -2 -342 17 -45 9 -121 29 -168 45 -94 32
-122 32 -204 -4 -60 -27 -105 -36 -121 -26 -12 7 -11 11 1 20 12 8 10 9 -7 4
-18 -5 -23 -2 -23 11 0 14 -3 15 -12 6 -10 -10 -16 -8 -31 10 l-19 23 7 -25
c25 -95 25 -90 -1 -90 -13 0 -24 -4 -24 -10 0 -5 -6 -10 -14 -10 -7 0 -19 -6
-25 -14 -6 -7 -32 -19 -56 -26 -49 -14 -69 -30 -36 -30 11 0 22 4 25 9 8 12
46 21 46 10 0 -5 -11 -11 -25 -15 -14 -3 -23 -9 -20 -13 2 -4 -10 -6 -28 -4
-26 3 -28 1 -12 -6 19 -9 19 -10 -2 -10 -12 -1 -24 3 -27 8 -7 10 -55 0 -110
-23 -55 -24 -38 -30 20 -8 32 13 56 17 69 11 18 -7 18 -8 -5 -8 -14 -1 -35 -8
-46 -16 -12 -8 -24 -11 -28 -7 -4 3 -4 -1 0 -11 5 -15 3 -16 -21 -7 -32 12
-45 13 -26 1 11 -7 9 -10 -8 -16 -11 -3 -21 -10 -21 -14 0 -9 51 -34 57 -27 2
2 -5 7 -16 11 -27 8 -27 22 1 31 15 4 25 1 35 -12 12 -17 15 -17 45 -1 l33 17
-35 -5 c-19 -3 -28 -2 -20 2 8 3 18 10 21 15 3 5 17 4 33 -2 20 -7 34 -6 54 4
15 7 65 26 112 41 47 15 87 31 90 34 3 3 12 7 20 7 8 1 70 23 137 48 l122 47
88 -30 c151 -51 224 -63 425 -68 215 -6 280 4 467 67 l115 38 314 -104 c195
-64 333 -115 362 -134 44 -28 103 -85 174 -170 29 -34 166 -190 176 -200 3 -3
37 -41 75 -85 70 -80 100 -113 290 -319 55 -59 101 -111 103 -116 6 -17 -465
-437 -585 -521 l-55 -38 -47 39 c-25 22 -102 100 -171 174 l-125 133 -6 -36
c-13 -72 -31 -479 -28 -614 2 -75 1 -137 -3 -137 -3 0 -51 60 -106 133 -139
183 -183 241 -189 247 -14 13 38 -77 126 -218 54 -86 119 -193 144 -237 46
-80 102 -204 94 -211 -6 -6 -40 33 -134 157 -134 175 -307 388 -316 389 -4 0
-4 -6 0 -13 39 -62 409 -611 455 -675 33 -46 58 -86 54 -89 -3 -3 -81 70 -173
162 -153 152 -305 292 -277 255 7 -8 50 -66 98 -129 47 -62 86 -122 86 -132 0
-23 -17 -24 -129 -4 -129 23 -189 40 -338 98 -76 30 -175 66 -221 81 -107 34
-292 52 -382 39 l-65 -10 57 -2 c106 -2 305 -58 418 -117 56 -29 44 -29 -65
-4 -310 72 -656 27 -868 -114 -51 -34 -137 -110 -137 -121 0 -3 27 15 60 39
76 56 124 79 235 111 158 47 405 46 605 -2 36 -9 68 -19 72 -22 4 -3 -75 -6
-175 -6 -193 0 -237 -7 -362 -53 -145 -53 -254 -138 -354 -271 -47 -65 -110
-192 -111 -227 0 -8 38 -14 113 -17 61 -3 121 -7 132 -9 23 -4 22 -9 24 136 1
107 3 116 27 145 34 41 148 95 264 126 146 38 312 56 580 62 522 12 937 -52
1062 -165 l38 -34 0 -372 c0 -436 0 -436 71 -370 111 102 299 209 439 251 l75
22 -60 1 c-52 1 -154 14 -260 35 -16 3 -57 11 -90 17 -33 6 -73 18 -90 25
l-30 14 30 -6 c153 -28 212 -33 350 -29 177 6 230 10 243 18 6 3 53 15 105 25
53 11 110 26 129 34 18 9 65 28 103 43 255 99 522 264 744 460 l35 32 -43 23
c-24 13 -53 30 -65 36 -46 27 -97 12 -104 -32 -6 -30 -9 -30 -26 3 -9 17 -32
41 -53 54 -34 21 -49 23 -148 22 -129 0 -182 -18 -326 -109 -88 -56 -106 -64
-93 -43 5 7 2 9 -9 5 -11 -4 -14 -2 -11 8 3 8 12 11 20 8 8 -3 14 -1 14 5 0 5
-7 12 -15 16 -8 3 -15 1 -15 -4 0 -5 -12 -16 -27 -24 -16 -8 -39 -24 -53 -36
-44 -39 -191 -142 -195 -138 -3 3 19 24 47 49 115 97 144 126 141 136 -2 6 3
10 11 9 8 0 39 22 68 49 94 90 226 174 250 159 6 -4 8 -3 5 3 -11 17 120 42
228 43 105 1 181 -14 261 -50 24 -11 44 -25 44 -31 0 -6 11 -25 25 -44 22 -28
35 -35 90 -44 63 -11 67 -11 127 20 143 71 261 103 339 93 50 -7 58 -24 12
-24 -36 0 -114 -38 -267 -132 -243 -150 -321 -201 -436 -287 -169 -127 -224
-163 -340 -221 -112 -56 -210 -93 -279 -105 -71 -12 -33 -24 89 -29 242 -10
458 -81 627 -208 l42 -31 83 31 c46 17 135 47 198 68 392 126 651 286 783 486
49 74 67 127 74 213 10 126 -40 242 -146 337 -136 123 -295 145 -485 69 -101
-40 -130 -45 -150 -26 -36 36 -12 133 75 308 141 281 149 454 26 575 -125 123
-336 85 -503 -90 -78 -82 -121 -147 -185 -285 -29 -62 -57 -113 -64 -113 -28
0 -107 64 -157 126 -95 119 -123 204 -121 359 1 38 4 84 8 102 4 21 2 33 -5
33 -6 0 -10 -6 -9 -12 1 -7 0 -20 -3 -28 -16 -45 -28 -117 -29 -168 0 -31 -3
-51 -6 -44 -10 26 -21 10 -17 -25 9 -63 -14 -15 -31 67 -36 172 -4 420 78 600
40 88 157 213 211 225 l31 8 -40 7 c-68 13 -162 -33 -247 -121 -21 -22 -36
-39 -33 -39 3 0 -6 -12 -20 -27 -14 -16 -56 -89 -92 -163 -37 -74 -69 -128
-71 -119 -4 22 35 168 49 186 7 7 9 16 6 19 -9 10 -87 -71 -87 -90 0 -10 5
-14 12 -10 8 5 9 0 5 -17 -4 -13 -12 -53 -18 -89 -22 -134 -41 -210 -52 -216
-7 -4 -9 -4 -5 1 4 4 -4 22 -17 40 -14 17 -22 35 -18 39 4 4 2 11 -6 15 -9 6
-2 20 28 55 46 53 50 77 21 106 -11 11 -20 25 -20 30 0 6 -7 13 -15 16 -8 4
-12 11 -8 17 4 6 1 7 -6 2 -11 -6 -51 24 -51 39 0 3 -11 16 -23 30 -23 25 -23
28 -12 90 18 93 63 176 170 311 93 118 113 152 58 101 -15 -14 -32 -26 -37
-26 -4 0 -37 -22 -72 -50 -35 -27 -69 -50 -75 -50 -7 0 -9 -3 -6 -7 8 -7 -31
-53 -44 -53 -5 0 5 24 21 54 49 89 37 108 -56 87 -42 -10 -61 -20 -82 -47 -15
-19 -30 -34 -33 -34 -12 0 -5 29 8 35 9 3 12 12 8 26 -5 15 1 27 22 45 15 13
33 24 40 24 6 0 13 4 15 8 2 5 15 15 29 23 29 15 201 129 209 138 3 4 22 18
42 33 64 48 198 227 198 265 0 3 -23 -29 -50 -71 -28 -41 -72 -94 -98 -117
-26 -23 -46 -46 -44 -51 1 -5 -2 -7 -7 -4 -5 3 -20 -3 -34 -14 -24 -19 -180
-100 -192 -100 -25 0 28 129 95 229 56 83 157 191 179 191 6 0 11 5 11 11 0
18 -61 -24 -106 -74 -74 -82 -136 -177 -181 -276 -34 -76 -47 -97 -65 -99 -13
-2 -27 -7 -33 -11 -16 -13 -45 -21 -44 -13 4 23 -4 33 -10 12 -9 -31 -41 -40
-41 -12 0 33 11 52 30 52 13 0 20 9 23 28 4 24 4 23 7 -8 l2 -35 8 30 8 30 1
-32 c0 -17 -5 -34 -11 -36 -8 -3 -6 -6 5 -6 10 -1 20 6 24 15 5 13 7 13 14 2
5 -8 8 16 9 57 0 76 1 85 19 130 36 90 62 126 157 220 116 114 144 163 144
250 0 135 -106 244 -272 279 -32 7 -53 63 -63 168 -7 75 -25 102 -25 38 0 -26
4 -39 10 -35 7 4 9 -2 5 -18 -6 -21 8 -85 30 -139 5 -13 2 -18 -9 -18 -9 0
-19 7 -22 15 -5 11 -11 12 -24 5 -10 -6 -36 -10 -56 -10 -27 0 -55 -12 -101
-41 -61 -40 -64 -41 -78 -23 -7 10 -16 29 -19 40 -8 31 -91 175 -115 201 -12
12 -21 26 -21 32 0 5 -3 11 -7 13 -9 3 -72 88 -118 158 -79 118 -204 272 -227
278 -17 4 -19 10 -13 41 12 68 26 86 69 89 22 2 51 -2 64 -10 32 -17 102 -117
137 -196 15 -34 30 -60 32 -58 11 11 -55 176 -92 231 -51 76 -93 105 -153 105
-39 0 -50 -5 -82 -39z m-313 -768 c-3 -10 -5 -4 -5 12 0 17 2 24 5 18 2 -7 2
-21 0 -30z m1168 -73 c-3 -6 4 -10 17 -10 16 0 19 -3 10 -9 -16 -10 16 -21 63
-21 17 0 37 -5 45 -10 11 -8 7 -9 -15 -4 l-30 6 35 -22 c51 -33 54 -44 17 -53
l-32 -9 24 -13 c22 -11 19 -13 -41 -17 -53 -3 -76 -11 -128 -41 -34 -21 -68
-36 -74 -34 -6 3 -2 8 9 13 11 4 29 16 39 26 11 10 28 18 37 18 10 0 21 5 24
10 3 6 2 10 -4 10 -17 0 -102 -40 -117 -55 -9 -8 -19 -15 -24 -15 -14 0 -130
-121 -157 -163 -13 -21 -21 -43 -17 -49 4 -7 3 -8 -4 -4 -12 7 -54 -76 -67
-132 -3 -18 -11 -30 -16 -26 -5 3 -9 -9 -9 -25 0 -17 5 -31 10 -31 6 0 10 -7
10 -15 0 -9 -9 -15 -25 -15 -14 0 -25 -3 -25 -7 0 -5 -3 -18 -6 -30 -4 -13 -2
-23 4 -23 5 0 12 10 15 22 4 12 9 19 13 15 3 -3 3 -14 -1 -24 -8 -18 -13 -73
-17 -169 l-2 -51 -47 51 c-58 62 -64 94 -57 289 5 120 8 140 38 217 36 91 111
216 145 240 11 8 38 31 61 52 59 54 167 103 231 104 29 0 56 4 60 7 10 10 15
8 8 -3z m196 -87 c13 -16 12 -17 -3 -4 -10 7 -18 15 -18 17 0 8 8 3 21 -13z
m-2093 -24 c2 -5 8 -9 13 -9 14 0 71 -42 87 -63 7 -9 18 -14 24 -11 7 4 8 2 4
-4 -4 -7 -3 -12 2 -12 6 0 21 -17 34 -37 12 -20 31 -49 40 -63 10 -14 27 -44
39 -68 12 -23 25 -45 30 -48 10 -6 -11 48 -43 109 -35 68 -6 171 56 201 92 43
196 2 321 -126 131 -135 185 -198 231 -267 41 -60 51 -81 40 -81 -3 0 -42 14
-88 31 -46 17 -90 32 -98 34 -8 2 -28 9 -45 16 -16 7 -32 13 -35 14 -111 28
-151 30 -217 9 -14 -4 -23 -2 -23 4 0 6 8 12 18 14 14 3 13 5 -5 10 -12 3 -22
3 -21 -1 3 -26 -5 -41 -22 -41 -24 0 -25 6 -4 27 11 11 12 18 4 23 -6 4 -9 17
-5 32 4 15 2 29 -4 32 -15 10 -26 -43 -12 -57 16 -16 14 -27 -4 -21 -12 5 -15
-1 -13 -27 l3 -33 -80 -17 c-44 -10 -98 -18 -121 -18 -40 -1 -42 1 -77 58 -20
32 -69 92 -108 132 -98 101 -125 165 -100 232 7 17 22 28 48 35 41 11 126 5
131 -9z m1632 -303 c0 -3 -4 -8 -10 -11 -5 -3 -10 -1 -10 4 0 6 5 11 10 11 6
0 10 -2 10 -4z m-38 -55 c-9 -16 -18 -28 -21 -26 -4 5 27 55 34 55 2 0 -4 -13
-13 -29z m-465 -53 c-3 -8 -6 -5 -6 6 -1 11 2 17 5 13 3 -3 4 -12 1 -19z m416
-37 c-11 -23 -22 -39 -25 -36 -3 3 4 24 15 46 26 52 34 43 10 -10z m-2353 -11
c0 -5 -4 -10 -10 -10 -5 0 -10 5 -10 10 0 6 5 10 10 10 6 0 10 -4 10 -10z m5
-46 c9 3 15 -1 15 -9 0 -18 0 -18 -41 -1 -19 7 -40 11 -47 9 -7 -3 -10 1 -6
10 5 13 9 13 35 0 16 -8 36 -12 44 -9z m2318 -14 c-3 -12 -8 -19 -11 -16 -5 6
5 36 12 36 2 0 2 -9 -1 -20z m-2403 -4 c0 -3 -4 -8 -10 -11 -5 -3 -10 -1 -10
4 0 6 5 11 10 11 6 0 10 -2 10 -4z m-84 -71 c-11 -8 -25 -15 -30 -15 -6 1 0 7
14 15 32 19 40 18 16 0z m-99 -31 c-3 -3 -12 -4 -19 -1 -8 3 -5 6 6 6 11 1 17
-2 13 -5z m2368 -24 c3 -5 1 -10 -4 -10 -6 0 -11 5 -11 10 0 6 2 10 4 10 3 0
8 -4 11 -10z m552 -72 c-3 -8 -6 -5 -6 6 -1 11 2 17 5 13 3 -3 4 -12 1 -19z
m228 -316 c-11 -9 -35 -40 -53 -68 -18 -28 -44 -64 -57 -80 -14 -16 -25 -37
-25 -46 0 -9 -4 -19 -9 -23 -6 -3 -6 5 -1 22 12 42 36 84 43 76 4 -3 7 1 7 9
0 20 88 128 104 128 6 -1 2 -8 -9 -18z m-348 -44 c-3 -8 -6 -5 -6 6 -1 11 2
17 5 13 3 -3 4 -12 1 -19z m53 7 c0 -7 -6 -18 -13 -22 -8 -4 -19 -17 -25 -28
-7 -11 -12 -14 -12 -7 0 18 32 72 42 72 4 0 8 -7 8 -15z m235 -783 c55 -43
131 -167 166 -272 11 -36 34 -91 50 -124 16 -32 28 -61 25 -63 -4 -5 -75 93
-121 167 -51 82 -108 151 -136 166 -24 12 -30 12 -43 -2 -25 -24 -39 -93 -31
-157 6 -58 34 -158 55 -197 25 -47 2 -38 -32 12 -77 111 -146 309 -131 373 4
17 7 32 8 35 3 19 41 60 70 76 19 10 35 22 35 25 0 14 38 -4 85 -39z m1155
-63 c0 -5 -4 -7 -10 -4 -5 3 -10 2 -10 -3 0 -5 -9 -12 -20 -15 -12 -3 -20 -14
-20 -27 0 -17 -4 -20 -20 -15 -16 5 -19 3 -13 -11 5 -14 3 -16 -13 -11 -18 7
-18 6 -1 -7 17 -13 15 -15 -18 -36 -19 -12 -35 -26 -35 -31 0 -14 16 -11 30 6
7 9 15 13 18 11 4 -5 -18 -35 -61 -86 -6 -8 -24 -30 -39 -48 -16 -19 -28 -30
-28 -24 0 5 -8 9 -17 8 -10 0 -19 7 -21 17 -2 9 1 17 7 17 5 0 11 -8 13 -17 3
-15 5 -14 10 5 4 14 2 20 -4 16 -17 -10 1 37 31 81 64 96 221 220 221 174z
m-1371 -30 c-6 -13 -9 -51 -7 -93 4 -86 39 -166 125 -289 111 -161 130 -193
151 -262 22 -72 31 -186 12 -153 -6 9 -17 45 -26 80 -9 34 -24 79 -34 98 -16
31 -104 156 -120 170 -10 8 -76 113 -93 145 -58 115 -65 284 -14 317 18 12 19
10 6 -13z m1368 -5 c-3 -3 -12 -4 -19 -1 -8 3 -5 6 6 6 11 1 17 -2 13 -5z
m-54 -67 c-15 -19 -30 -33 -32 -31 -6 5 40 64 51 64 5 0 -3 -15 -19 -33z
m-1459 -49 c-13 -20 -15 -36 -16 -138 -1 -98 -15 -92 -17 7 -1 31 -7 57 -16
67 -20 20 -20 23 17 56 32 29 47 33 32 8z m1871 -130 c-4 -29 -23 -93 -42
-141 -35 -90 -112 -241 -119 -234 -2 2 19 55 47 118 28 63 66 158 83 211 17
54 33 98 34 98 2 0 1 -24 -3 -52z m-2041 -41 c11 -13 53 -69 91 -125 39 -57
76 -111 84 -122 7 -11 10 -20 5 -19 -5 0 -47 50 -94 111 -47 60 -95 121 -107
135 -39 44 -19 63 21 20z m1406 -57 c0 -5 -5 -10 -11 -10 -5 0 -7 5 -4 10 3 6
8 10 11 10 2 0 4 -4 4 -10z m-1220 -93 c0 -5 -4 -5 -10 -2 -5 3 -10 14 -10 23
0 15 2 15 10 2 5 -8 10 -19 10 -23z m1031 -30 c-10 -9 -11 -8 -5 6 3 10 9 15
12 12 3 -3 0 -11 -7 -18z m-914 -178 c44 -82 78 -149 74 -149 -7 0 -109 174
-120 204 -2 6 -7 13 -11 16 -6 4 -49 89 -57 115 -11 31 42 -56 114 -186z m-87
66 c20 -24 6 -28 -15 -5 -10 11 -13 20 -8 20 6 0 16 -7 23 -15z m35 -45 c3 -5
1 -10 -4 -10 -6 0 -11 5 -11 10 0 6 2 10 4 10 3 0 8 -4 11 -10z m2160 -280 c3
-5 1 -10 -4 -10 -6 0 -11 5 -11 10 0 6 2 10 4 10 3 0 8 -4 11 -10z m-10 -50
c3 -5 1 -10 -4 -10 -6 0 -11 5 -11 10 0 6 2 10 4 10 3 0 8 -4 11 -10z m-231
-24 c-3 -9 -10 -16 -15 -16 -5 0 -4 9 3 20 14 22 21 20 12 -4z m306 -6 c0 -5
-2 -10 -4 -10 -3 0 -8 5 -11 10 -3 6 -1 10 4 10 6 0 11 -4 11 -10z m-30 -20
c0 -5 -2 -10 -4 -10 -3 0 -8 5 -11 10 -3 6 -1 10 4 10 6 0 11 -4 11 -10z m42
-61 c-3 -46 -2 -60 7 -54 8 4 10 22 7 49 -4 29 -3 35 3 21 19 -40 12 -94 -14
-123 l-25 -27 0 83 c0 70 7 101 26 112 0 0 -2 -28 -4 -61z m-204 -14 c-3 -3
-13 -2 -22 1 -14 5 -15 9 -4 15 13 8 36 -6 26 -16z m2 -35 c0 -5 -2 -10 -4
-10 -3 0 -8 5 -11 10 -3 6 -1 10 4 10 6 0 11 -4 11 -10z m7 -142 c-2 -18 -4
-6 -4 27 0 33 2 48 4 33 2 -15 2 -42 0 -60z m205 45 c-3 -16 -7 -22 -10 -15
-4 13 4 42 11 42 2 0 2 -12 -1 -27z m-25 -30 c-3 -10 -5 -4 -5 12 0 17 2 24 5
18 2 -7 2 -21 0 -30z m-47 -37 c0 -3 -4 -8 -10 -11 -5 -3 -10 -1 -10 4 0 6 5
11 10 11 6 0 10 -2 10 -4z m-64 -80 c10 -8 16 -18 11 -22 -4 -4 -7 -2 -7 4 0
7 -6 12 -14 12 -8 0 -18 5 -21 10 -9 15 8 12 31 -4z"/>
<path d="M7710 5074 c0 -8 5 -12 10 -9 6 3 10 10 10 16 0 5 -4 9 -10 9 -5 0
-10 -7 -10 -16z"/>
<path d="M6673 5583 c9 -2 23 -2 30 0 6 3 -1 5 -18 5 -16 0 -22 -2 -12 -5z"/>
<path d="M6723 5568 c-2 -17 0 -18 15 -7 9 8 18 14 20 15 1 1 -5 4 -16 6 -12
4 -18 -1 -19 -14z"/>
<path d="M6760 5546 c0 -16 43 -27 62 -15 10 7 10 9 1 10 -28 3 -32 4 -39 12
-12 11 -24 8 -24 -7z"/>
<path d="M6610 5546 c0 -2 7 -17 15 -32 15 -29 22 -13 9 20 -5 14 -24 23 -24
12z"/>
<path d="M6810 5509 c0 -5 -4 -8 -9 -4 -5 3 -12 1 -16 -5 -9 -15 26 -12 55 5
l25 14 -27 1 c-16 0 -28 -5 -28 -11z"/>
<path d="M6849 5478 c6 -16 16 -22 31 -20 13 1 31 -5 42 -14 35 -33 27 -7 -9
27 -20 19 -32 27 -28 19 6 -12 5 -13 -6 -2 -22 21 -40 15 -30 -10z"/>
<path d="M6880 5440 c0 -5 5 -10 11 -10 5 0 7 5 4 10 -3 6 -8 10 -11 10 -2 0
-4 -4 -4 -10z"/>
<path d="M6890 5416 c0 -2 9 -6 20 -9 11 -3 18 -1 14 4 -5 9 -34 13 -34 5z"/>
<path d="M6967 5404 c6 -15 23 -19 23 -5 0 5 -7 11 -14 14 -10 4 -13 1 -9 -9z"/>
<path d="M6728 5403 c7 -3 16 -2 19 1 4 3 -2 6 -13 5 -11 0 -14 -3 -6 -6z"/>
<path d="M6860 5406 c0 -2 7 -7 16 -10 8 -3 12 -2 9 4 -6 10 -25 14 -25 6z"/>
<path d="M6945 5360 c3 -5 8 -10 11 -10 2 0 4 5 4 10 0 6 -5 10 -11 10 -5 0
-7 -4 -4 -10z"/>
<path d="M9220 3618 c-22 -24 -26 -38 -10 -38 13 0 50 37 50 50 0 17 -18 11
-40 -12z"/>
<path d="M9207 3563 c-4 -3 -7 -11 -7 -17 0 -6 5 -5 12 2 6 6 9 14 7 17 -3 3
-9 2 -12 -2z"/>
<path d="M8337 6674 c6 -15 23 -19 23 -5 0 5 -7 11 -14 14 -10 4 -13 1 -9 -9z"/>
<path d="M8057 6663 c-12 -12 -7 -22 8 -17 8 4 15 10 15 15 0 11 -14 12 -23 2z"/>
<path d="M8065 6409 c-4 -6 -5 -12 -2 -15 2 -3 7 2 10 11 7 17 1 20 -8 4z"/>
<path d="M8941 6366 c6 -28 35 -43 57 -30 9 6 17 17 18 25 0 8 -1 9 -3 2 -8
-23 -35 -23 -55 -1 -18 20 -20 21 -17 4z"/>
<path d="M8678 6253 c-28 -7 -21 -21 7 -15 14 2 25 8 25 13 0 9 -4 10 -32 2z"/>
<path d="M8729 6238 c11 -15 11 -21 1 -33 -18 -22 -8 -25 12 -4 15 16 15 19
-5 36 -19 16 -20 16 -8 1z"/>
<path d="M8637 6200 c-3 -11 -2 -20 3 -20 12 0 21 28 11 35 -5 2 -11 -4 -14
-15z"/>
<path d="M8112 6180 c0 -14 2 -19 5 -12 2 6 2 18 0 25 -3 6 -5 1 -5 -13z"/>
<path d="M8743 6174 c-6 -13 -7 -24 -3 -24 9 0 25 39 18 45 -2 2 -8 -7 -15
-21z"/>
<path d="M8640 6160 c0 -5 5 -10 11 -10 5 0 7 5 4 10 -3 6 -8 10 -11 10 -2 0
-4 -4 -4 -10z"/>
<path d="M8704 6142 c3 -6 -2 -13 -11 -16 -12 -3 -10 -4 5 -3 24 2 32 19 11
26 -6 2 -9 -1 -5 -7z"/>
<path d="M6584 6115 c-11 -28 -44 -38 -63 -21 -25 23 -50 20 -77 -9 -13 -14
-33 -25 -46 -25 -20 0 -21 -1 -6 -16 13 -14 29 -15 96 -9 71 6 81 9 84 28 4
25 28 36 28 12 0 -28 54 -15 58 14 2 13 -2 28 -10 32 -21 14 -58 10 -64 -6z"/>
<path d="M7027 6095 c5 -28 4 -29 -9 -11 -13 17 -14 15 -11 -25 2 -23 4 -44 6
-45 1 -1 9 20 19 47 9 27 12 47 8 44 -5 -3 -11 1 -14 7 -3 7 -3 0 1 -17z"/>
<path d="M8899 5657 c-50 -19 -92 -51 -133 -100 -34 -42 -76 -133 -70 -152 2
-5 -30 -109 -72 -230 -84 -242 -104 -308 -105 -345 -2 -33 -20 -81 -39 -102
-8 -9 -26 -39 -40 -65 -13 -26 -27 -50 -30 -53 -3 -3 -12 -25 -19 -50 -7 -25
-18 -54 -23 -65 -9 -16 -8 -18 3 -7 20 18 39 15 39 -8 0 -14 5 -18 16 -13 12
4 15 2 12 -8 -3 -8 -11 -13 -17 -12 -6 2 -11 -2 -11 -9 0 -6 -7 -19 -15 -28
-23 -26 -45 -106 -32 -119 6 -6 8 -12 4 -12 -4 -1 -11 -3 -17 -4 -5 -1 -13 -3
-17 -4 -5 -1 -1 -6 7 -11 8 -5 15 -19 15 -31 0 -39 22 -32 28 8 19 132 59 227
118 282 19 18 20 22 8 38 -13 16 -12 17 4 4 28 -22 33 -4 6 27 l-24 27 27 -24
26 -23 69 55 c62 50 201 136 306 188 86 43 193 123 233 173 22 28 53 80 69
116 27 59 30 75 30 175 0 134 -21 206 -80 280 -78 95 -187 135 -276 102z m187
-168 c34 -12 82 -63 100 -106 20 -45 17 -138 -6 -203 -11 -30 -19 -63 -20 -72
0 -10 -4 -18 -9 -18 -5 0 -12 -14 -16 -30 -4 -17 -11 -28 -16 -25 -5 4 -6 0
-3 -8 3 -9 -12 -31 -38 -56 -52 -50 -80 -55 -35 -6 18 19 32 38 32 43 0 4 10
21 23 39 31 44 28 52 -8 18 -34 -33 -54 -26 -24 8 22 24 44 71 44 90 -1 7 -8
-1 -17 -18 -10 -16 -16 -36 -14 -44 1 -8 -3 -12 -12 -8 -14 5 -16 2 -20 -45
-1 -22 -15 -36 -60 -64 -32 -20 -61 -33 -65 -29 -4 3 1 11 11 16 9 6 24 24 33
42 9 18 23 36 30 40 8 4 14 14 14 21 0 8 6 19 14 25 8 7 18 26 21 42 5 21 11
29 21 25 17 -6 17 -7 3 33 -6 17 -15 31 -20 31 -5 0 -9 5 -9 10 0 6 7 10 15
10 8 0 15 5 15 11 0 5 -4 7 -10 4 -6 -4 -10 7 -10 24 0 17 5 31 10 31 6 0 10
-9 10 -20 0 -11 5 -20 10 -20 7 0 8 -13 4 -35 -5 -31 -4 -34 11 -29 15 6 17
16 12 58 -4 41 -27 111 -45 136 -2 2 -8 -2 -13 -10 -9 -13 -10 -13 -6 1 3 9 2
21 -1 26 -11 17 -82 54 -82 43 0 -6 -5 -10 -11 -10 -6 0 -26 -12 -45 -26 -38
-29 -47 -20 -11 11 55 49 135 67 193 44z m-121 -55 c-9 -9 -19 -13 -23 -10 -3
4 0 11 8 16 24 15 33 11 15 -6z m-88 -66 c-3 -8 -6 -5 -6 6 -1 11 2 17 5 13 3
-3 4 -12 1 -19z m193 -29 c0 -6 -4 -7 -10 -4 -5 3 -10 11 -10 16 0 6 5 7 10 4
6 -3 10 -11 10 -16z m-230 1 c0 -5 -4 -10 -10 -10 -5 0 -10 5 -10 10 0 6 5 10
10 10 6 0 10 -4 10 -10z m30 0 c0 -5 -5 -10 -11 -10 -5 0 -7 5 -4 10 3 6 8 10
11 10 2 0 4 -4 4 -10z m-73 -107 c0 -37 -3 -49 -7 -33 -6 24 -7 23 -19 -12
-10 -32 -10 -41 5 -63 9 -14 13 -29 9 -33 -4 -4 -10 -1 -12 6 -8 23 -21 12
-27 -24 -4 -19 -14 -38 -22 -41 -9 -3 -13 -13 -9 -27 4 -15 3 -17 -3 -8 -8 11
-10 11 -15 -1 -3 -8 0 -20 6 -26 6 -6 7 -14 3 -18 -4 -4 -11 -1 -15 6 -6 9
-11 10 -15 2 -4 -6 -4 -15 -1 -21 3 -5 1 -10 -4 -10 -6 0 -11 -19 -11 -41 0
-36 -2 -41 -20 -36 -11 3 -18 2 -15 -3 3 -4 -6 -15 -20 -24 -30 -20 -31 -17
-4 36 16 32 23 38 31 27 8 -11 8 -9 4 5 -4 12 13 58 48 130 45 91 87 191 91
216 2 12 17 50 19 50 2 0 3 -26 3 -57z m243 -73 c0 -5 -4 -10 -10 -10 -5 0
-10 5 -10 10 0 6 5 10 10 10 6 0 10 -4 10 -10z m-100 -157 c-8 -3 -22 -11 -30
-17 -13 -10 -13 -9 -1 7 7 9 21 17 30 16 13 0 14 -1 1 -6z m-310 -214 c-7 -11
-14 -19 -16 -16 -7 7 7 37 17 37 6 0 5 -9 -1 -21z m155 -29 c3 -6 -1 -7 -9 -4
-18 7 -21 14 -7 14 6 0 13 -4 16 -10z m-47 -14 c-7 -8 -15 -12 -17 -11 -5 6
10 25 20 25 5 0 4 -6 -3 -14z m-98 -76 c8 -5 11 -10 5 -10 -5 0 -17 5 -25 10
-8 5 -10 10 -5 10 6 0 17 -5 25 -10z m-40 -14 c0 -2 -7 -7 -16 -10 -8 -3 -12
-2 -9 4 6 10 25 14 25 6z m-20 -40 c0 -2 -8 -10 -17 -17 -16 -13 -17 -12 -4 4
13 16 21 21 21 13z m-95 -69 c8 -8 2 -19 -19 -40 -19 -17 -32 -24 -34 -17 -3
7 2 16 9 21 7 4 10 11 6 16 -5 4 -12 1 -17 -7 -12 -19 -33 0 -25 23 7 18 62
20 80 4z"/>
<path d="M6626 5143 c-51 -23 -123 -44 -210 -60 -115 -21 -150 -24 -286 -20
-177 6 -270 23 -384 72 -44 19 -82 33 -84 30 -10 -10 45 -102 93 -153 53 -57
191 -146 227 -146 10 0 18 -3 18 -7 0 -4 37 -12 83 -19 146 -20 295 7 412 75
84 50 267 271 218 264 -5 -1 -43 -17 -87 -36z m-329 -165 c-3 -7 -5 -2 -5 12
0 14 2 19 5 13 2 -7 2 -19 0 -25z"/>
<path d="M4861 5046 c-9 -11 -9 -15 1 -20 7 -3 2 -4 -11 -2 -17 4 -34 -6 -67
-41 -25 -25 -43 -48 -40 -50 3 -3 12 2 21 11 9 9 21 14 26 11 14 -9 11 -25 -4
-19 -7 2 -23 -5 -35 -16 -12 -12 -26 -19 -31 -16 -4 3 -7 -7 -5 -22 2 -15 1
-19 -2 -9 -6 19 -24 24 -24 6 0 -7 -6 -17 -14 -23 -14 -12 -176 -205 -268
-322 -31 -39 -63 -77 -70 -85 -8 -8 -37 -42 -65 -76 -28 -34 -103 -122 -167
-196 -64 -74 -116 -139 -116 -144 0 -12 149 -159 205 -203 22 -18 42 -35 45
-39 21 -30 328 -272 420 -332 130 -85 156 -88 224 -28 26 23 51 38 55 33 28
-31 107 -267 137 -407 16 -78 19 -176 5 -161 -6 5 -34 48 -63 96 -62 102 -149
226 -197 280 -50 57 -159 135 -221 159 -178 68 -329 -25 -306 -190 14 -104 96
-189 281 -291 100 -55 174 -111 216 -163 41 -52 55 -95 22 -65 -10 9 -33 23
-52 33 -44 22 -91 6 -91 -32 0 -35 44 -117 113 -208 110 -147 128 -204 88
-292 -18 -39 -98 -153 -108 -153 -8 0 -50 105 -78 195 -67 220 -113 306 -199
382 -128 113 -330 110 -433 -5 -94 -105 -113 -275 -48 -433 14 -34 25 -65 25
-69 0 -3 -19 -7 -42 -8 -107 -6 -195 -58 -269 -159 -80 -108 -119 -227 -119
-363 0 -152 42 -261 138 -358 94 -95 291 -170 420 -160 l53 5 36 -60 c72 -118
227 -248 398 -334 207 -104 499 -163 807 -163 l138 0 0 91 c0 90 0 91 -22 85
-13 -3 -57 -9 -99 -12 -160 -14 -350 60 -471 183 -101 102 -176 233 -208 363
-6 25 -13 52 -16 60 -13 34 -2 249 16 335 24 108 100 269 160 338 55 62 146
132 201 153 58 22 57 21 75 90 8 32 24 75 35 94 l19 35 -21 -25 c-12 -14 -33
-47 -48 -75 l-26 -50 -3 55 c-1 30 1 161 6 290 15 430 14 871 -3 1040 -9 85
-18 183 -22 218 -3 34 -9 62 -13 62 -4 0 -50 -51 -102 -112 -142 -168 -228
-258 -246 -258 -31 0 -395 286 -631 497 l-45 39 79 95 c121 144 167 200 210
254 22 28 49 61 61 75 13 14 48 57 79 95 269 335 358 435 387 435 4 0 8 5 8
10 0 7 -6 7 -19 0 -11 -5 -26 -10 -33 -10 -7 1 -2 7 12 14 l25 14 -30 4 c-21
2 -30 8 -29 21 2 21 0 21 -15 3z m22 -52 c4 -20 3 -21 -25 -5 -34 20 -35 26
-4 26 17 0 26 -7 29 -21z m-63 -88 c0 -3 -4 -8 -10 -11 -5 -3 -10 -1 -10 4 0
6 5 11 10 11 6 0 10 -2 10 -4z m-133 -81 c-4 -8 -11 -15 -17 -15 -6 0 -6 7 2
20 14 22 24 19 15 -5z m64 -8 c-13 -12 -20 -15 -16 -7 14 26 28 41 33 35 3 -3
-5 -16 -17 -28z m-51 -27 c0 -5 -5 -10 -11 -10 -5 0 -7 5 -4 10 3 6 8 10 11
10 2 0 4 -4 4 -10z m-297 -1568 c24 -34 74 -76 163 -138 129 -90 213 -162 252
-221 33 -47 27 -48 -20 -3 -23 22 -45 40 -49 40 -4 0 -14 6 -21 13 -7 7 -39
26 -70 42 -31 16 -54 33 -52 37 2 4 -11 11 -30 16 -30 9 -103 53 -157 95 -32
25 -59 82 -59 125 0 23 2 42 4 42 2 0 20 -22 39 -48z m-61 -572 c67 -25 117
-68 168 -145 36 -54 73 -145 83 -200 2 -11 9 -40 16 -64 20 -69 7 -58 -36 32
-46 94 -59 114 -122 174 -25 23 -42 46 -37 50 4 4 11 1 16 -6 9 -15 40 -8 40
8 0 12 -7 16 -42 25 -21 5 -26 3 -22 -8 8 -21 -10 -27 -32 -11 -18 14 -18 16
9 39 15 14 27 27 27 30 0 9 -59 -15 -71 -30 -6 -8 -27 -14 -46 -14 -40 0 -101
-24 -124 -49 -42 -45 -54 -84 -54 -181 0 -52 3 -108 8 -125 l7 -30 -19 23
c-44 51 -65 131 -66 242 0 99 2 108 29 150 60 95 163 130 268 90z m-167 -630
c62 -33 108 -69 72 -57 -11 4 -16 3 -12 -4 4 -5 15 -7 24 -4 18 5 49 -18 86
-65 20 -25 20 -25 0 -9 -36 29 -119 68 -165 79 -60 13 -177 11 -217 -3 -58
-22 -123 -76 -162 -137 -30 -47 -41 -57 -45 -43 -18 59 25 167 85 215 77 61
97 68 189 64 73 -3 94 -8 145 -36z m291 -506 c39 -16 226 -122 234 -133 3 -3
14 -11 24 -17 11 -6 22 -16 24 -24 3 -9 0 -10 -9 -4 -8 5 -18 9 -24 11 -5 1
-39 14 -74 28 -81 34 -174 48 -222 33 -52 -15 -82 -70 -81 -152 0 -64 26 -176
50 -213 7 -12 11 -27 7 -33 -4 -6 -2 -9 3 -8 5 2 29 -19 53 -47 37 -42 39 -46
14 -28 -27 19 -101 96 -130 135 -71 96 -105 178 -112 273 -4 61 -2 76 19 115
36 66 81 93 140 86 26 -4 63 -13 84 -22z"/>
<path d="M4231 1334 c0 -11 3 -14 6 -6 3 7 2 16 -1 19 -3 4 -6 -2 -5 -13z"/>
<path d="M8938 4683 c7 -3 16 -2 19 1 4 3 -2 6 -13 5 -11 0 -14 -3 -6 -6z"/>
<path d="M8956 4661 c-3 -4 6 -6 19 -3 14 2 25 0 25 -7 0 -5 -7 -8 -16 -4 -9
3 -4 -6 11 -21 24 -24 27 -33 23 -77 -4 -39 -12 -57 -38 -84 -18 -18 -29 -38
-26 -44 4 -6 3 -11 -2 -11 -5 0 -15 -11 -22 -25 -8 -15 -20 -23 -27 -20 -8 2
-12 1 -9 -4 3 -5 -6 -21 -19 -35 -14 -15 -25 -34 -25 -42 0 -9 -5 -12 -12 -8
-8 5 -9 2 -5 -10 5 -12 3 -16 -5 -13 -14 4 -48 -44 -48 -67 0 -8 -7 -27 -14
-43 -28 -53 -43 -118 -25 -108 5 4 9 15 9 25 0 10 4 21 9 24 5 3 12 18 16 33
3 15 10 30 14 33 4 3 24 36 45 74 36 67 80 127 139 191 40 44 77 123 77 166 0
45 -32 89 -65 89 -13 0 -26 -4 -29 -9z m17 -226 c-3 -9 -8 -14 -10 -11 -3 3
-2 9 2 15 9 16 15 13 8 -4z"/>
<path d="M9338 4579 c-33 -19 -15 -69 24 -69 15 0 38 27 38 44 0 7 -31 36 -38
36 -4 0 -15 -5 -24 -11z"/>
<path d="M9883 4488 c-32 -41 -14 -98 31 -98 47 0 73 61 40 94 -19 19 -58 21
-71 4z"/>
<path d="M8355 4440 c3 -5 8 -10 11 -10 2 0 4 5 4 10 0 6 -5 10 -11 10 -5 0
-7 -4 -4 -10z"/>
<path d="M8520 4398 l-23 -33 28 27 c16 15 26 30 23 33 -3 4 -16 -9 -28 -27z"/>
<path d="M8393 4195 c-3 -9 -3 -18 -1 -21 3 -3 8 4 11 16 6 23 -1 27 -10 5z"/>
<path d="M8761 3892 c-1 -39 32 -143 61 -192 28 -47 96 -118 131 -137 42 -21
44 -9 3 16 -80 50 -143 148 -176 275 -14 53 -19 63 -19 38z"/>
<path d="M10121 3848 c-122 -34 -168 -178 -80 -252 24 -21 41 -26 84 -26 88 0
152 39 175 107 22 62 -25 150 -90 168 -47 13 -55 13 -89 3z m117 -64 c36 -40
30 -92 -14 -135 -26 -24 -33 -28 -25 -12 31 61 -5 133 -67 133 l-37 0 29 25
c36 31 79 27 114 -11z"/>
<path d="M3332 3768 c-7 -7 -12 -21 -12 -33 0 -12 5 -26 12 -33 7 -7 21 -12
33 -12 12 0 26 5 33 12 7 7 12 21 12 33 0 12 -5 26 -12 33 -7 7 -21 12 -33 12
-12 0 -26 -5 -33 -12z"/>
<path d="M3974 3696 c-3 -8 -4 -25 -2 -38 2 -18 10 -24 36 -26 36 -4 48 13 38
53 -5 20 -13 25 -37 25 -16 0 -32 -6 -35 -14z"/>
<path d="M3616 3569 c-56 -66 -24 -146 74 -182 25 -9 70 -26 101 -37 31 -11
93 -43 138 -69 45 -27 81 -45 81 -40 0 10 -99 185 -133 234 -58 85 -119 125
-191 125 -37 0 -48 -5 -70 -31z m144 -30 l25 -21 -33 6 c-51 9 -75 -8 -70 -50
5 -38 1 -40 -30 -18 -26 18 -29 60 -5 86 22 25 81 23 113 -3z"/>
<path d="M4032 3114 c-43 -30 -16 -94 39 -94 31 0 49 17 49 45 0 47 -51 75
-88 49z"/>
<path d="M6300 2560 c-222 -23 -440 -82 -440 -121 0 -34 211 -82 440 -100 185
-14 585 -6 740 15 111 16 222 46 255 70 19 14 19 15 1 35 -35 38 -187 76 -411
101 -102 11 -471 11 -585 0z"/>
<path d="M5650 2230 c0 -93 -1 -170 -3 -170 -1 0 -30 10 -62 21 -83 30 -212
36 -295 15 -101 -26 -166 -62 -245 -140 -89 -87 -124 -143 -166 -266 -41 -123
-51 -284 -24 -406 53 -248 234 -441 465 -500 76 -19 209 -14 279 10 24 9 45
16 47 16 2 0 4 -69 4 -153 l0 -152 29 -36 c46 -55 175 -111 340 -144 546 -113
1339 -32 1450 148 21 34 21 40 21 968 0 514 0 937 0 942 0 4 -14 0 -31 -8 -76
-40 -209 -71 -409 -95 -142 -18 -599 -24 -781 -11 -261 19 -481 61 -579 111
l-40 20 0 -170z m-155 -297 c33 -11 66 -33 101 -68 l52 -52 4 -319 c4 -401 4
-402 -52 -459 -62 -63 -126 -88 -214 -83 -372 20 -532 582 -253 886 101 109
223 141 362 95z m936 -60 c70 -22 196 -22 276 0 l62 16 118 -40 c134 -46 135
-47 296 -228 l101 -114 -39 -34 c-22 -19 -73 -62 -114 -95 l-74 -59 -60 58
-59 58 5 -345 c3 -190 7 -352 9 -360 3 -13 -50 -15 -371 -18 l-373 -2 7 255
c4 140 4 303 0 362 l-7 107 -52 -57 c-28 -32 -55 -57 -60 -57 -5 0 -47 33 -94
73 -47 39 -96 82 -111 93 l-25 21 54 64 c30 35 69 80 86 99 127 140 111 128
239 175 66 23 123 43 126 44 3 0 30 -7 60 -16z"/>
<path d="M5273 1860 c-53 -24 -127 -98 -158 -159 -54 -107 -69 -237 -43 -366
9 -47 17 -61 40 -74 15 -9 28 -22 28 -29 0 -8 8 -10 26 -6 19 5 25 3 20 -4 -5
-8 -2 -10 8 -6 9 3 16 1 16 -5 0 -6 8 -11 19 -11 10 0 24 -7 31 -15 7 -8 20
-15 29 -16 9 0 11 -3 5 -5 -6 -3 -46 7 -90 20 -43 14 -80 23 -83 21 -8 -9 55
-89 94 -118 129 -95 255 -93 343 8 l32 36 0 317 0 318 -29 31 c-70 77 -197
105 -288 63z"/>
<path d="M6370 1864 c0 -22 60 -80 104 -100 68 -32 128 -31 194 2 46 23 109
80 99 90 -2 3 -19 -2 -38 -10 -98 -41 -235 -39 -320 5 -22 10 -39 16 -39 13z"/>
<path d="M8300 1997 c-24 -8 -36 -19 -38 -34 -5 -31 -17 -38 -112 -63 -224
-57 -424 -181 -552 -343 l-38 -49 0 -458 0 -459 204 6 203 6 112 -67 c191
-115 406 -211 566 -253 230 -59 446 -37 680 72 28 13 100 47 160 75 61 29 150
69 199 90 l90 38 65 -33 c167 -83 348 -134 434 -121 92 14 133 89 88 162 -32
53 -79 74 -182 82 -211 17 -403 -31 -712 -177 -272 -130 -397 -165 -572 -164
-66 1 -133 6 -150 11 -22 8 -4 9 67 5 182 -11 301 22 603 164 336 158 434 187
635 188 69 0 141 -3 160 -7 32 -7 30 -5 -20 23 -89 50 -510 249 -565 267 -37
11 -89 16 -195 16 -150 -1 -206 -8 -374 -50 -95 -23 -144 -27 -74 -6 18 6 71
23 118 37 129 40 231 55 383 55 75 0 137 2 137 4 0 20 -117 344 -149 410 -166
355 -459 536 -868 536 -128 0 -133 1 -157 25 -28 28 -85 33 -146 12z m465 -73
c229 -55 423 -259 521 -548 31 -89 30 -110 0 -31 -104 269 -268 463 -456 539
-25 10 -83 29 -130 42 -93 26 -43 24 65 -2z m-478 -21 c-31 -35 -87 -170 -109
-263 -21 -87 -23 -119 -23 -388 0 -309 -7 -327 -26 -71 -20 255 9 495 76 632
27 54 83 123 93 113 3 -3 -2 -14 -11 -23z m-156 -139 c-30 -71 -64 -221 -79
-354 l-9 -75 -2 77 c-2 111 31 268 75 356 20 41 38 72 40 70 2 -3 -9 -35 -25
-74z m490 -30 c19 -23 -1 -49 -37 -49 -20 0 -30 6 -32 18 -8 40 43 63 69 31z
m606 0 c8 -22 -16 -35 -41 -22 -19 10 -19 11 -1 24 24 18 34 18 42 -2z m-1339
-147 c3 -23 0 -27 -21 -27 -31 0 -41 24 -20 45 21 21 37 14 41 -18z"/>
<path d="M9853 1563 c-33 -6 -73 -49 -73 -78 0 -85 148 -104 191 -24 28 53
-45 116 -118 102z m67 -49 c0 -2 -7 -4 -15 -4 -8 0 -15 4 -15 10 0 5 7 7 15 4
8 -4 15 -8 15 -10z"/>
</g>
</svg>
