<?xml version="1.0" standalone="no"?>
<!DOCTYPE svg PUBLIC "-//W3C//DTD SVG 20010904//EN"
 "http://www.w3.org/TR/2001/REC-SVG-20010904/DTD/svg10.dtd">
<svg version="1.0" xmlns="http://www.w3.org/2000/svg"
 width="1024.000000pt" height="1024.000000pt" viewBox="0 0 1024.000000 1024.000000"
 preserveAspectRatio="xMidYMid meet">

<g transform="translate(0.000000,1024.000000) scale(0.100000,-0.100000)"
fill="#000000" stroke="none">
<path d="M4076 8925 c-20 -47 -53 -85 -75 -85 -9 0 -1 -9 17 -20 21 -13 41
-38 54 -67 l20 -46 14 39 c14 40 57 84 84 84 8 1 1 7 -15 14 -37 16 -54 36
-70 83 l-13 37 -16 -39z"/>
<path d="M1822 8746 c-13 -28 -33 -53 -51 -63 l-29 -17 30 -18 c17 -11 38 -38
50 -65 l20 -46 13 37 c15 43 39 73 67 82 18 5 16 9 -16 30 -20 14 -36 26 -36
27 0 1 -6 20 -14 41 l-14 39 -20 -47z"/>
<path d="M8161 7628 c-12 -35 -53 -82 -81 -90 -10 -3 -4 -10 18 -23 18 -11 42
-39 54 -63 l21 -44 14 33 c17 40 51 79 70 79 7 0 13 5 13 10 0 6 -6 10 -13 10
-21 0 -57 44 -72 86 l-12 37 -12 -35z"/>
<path d="M1012 7388 c-14 -28 -34 -51 -52 -60 l-28 -14 28 -13 c17 -7 36 -28
47 -51 10 -22 20 -39 23 -39 3 0 13 17 23 38 11 24 30 45 50 55 18 8 25 16 16
16 -24 0 -68 48 -77 84 l-8 30 -22 -46z"/>
<path d="M3934 7088 c-4 -6 -2 -14 4 -16 19 -6 14 -19 -9 -25 -12 -3 -18 -10
-14 -17 4 -6 -2 -22 -14 -34 -38 -40 -47 -181 -13 -193 22 -8 32 -23 32 -49 0
-12 6 -24 14 -27 36 -14 65 49 66 140 l0 43 50 -20 c60 -23 89 -25 96 -6 4 11
20 7 75 -18 68 -31 69 -31 70 -71 1 -38 1 -38 15 20 8 33 21 63 29 68 20 11
19 36 -2 59 -15 17 -15 21 -3 29 23 15 -41 64 -114 89 -63 21 -179 27 -206 10
-10 -6 -20 -3 -33 11 -20 22 -33 24 -43 7z"/>
<path d="M5610 6932 c0 -7 -11 -24 -25 -37 -13 -14 -20 -25 -14 -25 5 0 18
-15 29 -32 11 -18 20 -27 20 -20 0 7 11 24 25 37 13 14 20 25 14 25 -5 0 -18
15 -29 33 -11 17 -20 26 -20 19z"/>
<path d="M4026 6817 c-15 -11 -11 -13 29 -12 38 0 43 2 28 13 -21 15 -35 15
-57 -1z"/>
<path d="M4180 6800 c0 -5 7 -7 15 -4 8 4 26 -1 40 -10 26 -17 34 -9 13 12
-14 14 -68 16 -68 2z"/>
<path d="M4054 6776 c-8 -22 3 -33 18 -18 9 9 9 15 0 24 -9 9 -13 7 -18 -6z"/>
<path d="M4192 6754 c4 -21 22 -23 26 -1 2 10 -3 17 -13 17 -10 0 -15 -6 -13
-16z"/>
<path d="M3835 6476 c-146 -36 -203 -105 -253 -305 -24 -98 -23 -328 2 -399
39 -115 112 -163 253 -170 78 -4 98 -1 135 17 43 20 53 21 520 17 349 -3 481
-1 492 8 11 8 147 298 223 474 4 10 -62 12 -333 12 l-339 -1 -58 128 c-79 174
-79 173 -210 202 -81 18 -84 18 -106 0 -32 -26 -95 -24 -159 6 -59 27 -92 30
-167 11z m589 -532 c20 -76 20 -103 0 -49 -23 63 -52 194 -58 265 -5 57 -3 52
18 -45 13 -60 31 -138 40 -171z m-557 86 c-3 -47 -10 -96 -16 -110 -10 -22
-11 -21 -6 15 2 22 5 90 6 150 1 94 2 104 11 70 5 -22 7 -78 5 -125z m997
-126 c22 -8 20 -51 -2 -63 -33 -18 -58 29 -30 57 14 14 12 14 32 6z m-779 -59
c59 -5 88 -12 92 -21 4 -10 25 -14 72 -15 36 0 89 -4 116 -9 46 -7 47 -8 15
-10 -32 -3 -32 -3 -7 -7 15 -2 27 -9 27 -15 0 -6 -10 -8 -25 -4 -14 4 -25 2
-25 -4 0 -5 6 -10 14 -10 8 0 18 -5 22 -11 5 -9 -1 -10 -20 -5 -30 7 -34 -1
-8 -21 15 -13 14 -14 -13 -6 -16 4 -64 8 -105 8 l-75 0 3 52 4 51 -59 6 c-88
9 -264 43 -274 53 -5 5 29 1 76 -8 46 -9 123 -20 170 -24z"/>
<path d="M2920 5989 c-85 -32 -159 -60 -163 -61 -5 -2 10 -35 32 -73 46 -78
51 -109 20 -125 -32 -17 -43 -8 -88 74 -23 42 -47 78 -52 82 -10 6 -522 -177
-515 -184 5 -4 52 12 216 73 200 74 239 87 251 79 7 -4 9 -3 5 4 -3 6 3 14 16
18 24 7 52 -21 43 -44 -3 -8 0 -10 7 -6 8 5 9 2 5 -10 -4 -9 -3 -15 2 -12 4 3
18 -12 29 -33 25 -44 27 -55 10 -45 -7 4 -10 4 -6 -1 15 -16 71 -15 90 1 27
25 22 52 -22 127 -26 45 -35 69 -27 72 7 2 75 27 152 54 76 28 142 47 146 43
11 -14 68 -182 65 -195 -1 -6 -1 -8 2 -3 5 9 52 -106 52 -126 0 -6 -7 -7 -16
-4 -9 3 -12 2 -9 -5 4 -6 13 -8 20 -5 14 5 57 -101 59 -146 1 -14 4 -24 8 -22
3 2 14 -19 23 -46 20 -59 12 -74 -36 -78 -48 -4 -49 -12 -2 -12 29 0 43 5 47
17 6 15 8 15 16 3 6 -8 10 -18 10 -22 0 -5 -127 -8 -283 -8 l-283 0 -48 -30
c-36 -23 -53 -43 -73 -86 l-25 -55 7 -611 c6 -488 10 -615 21 -625 11 -11 14
-7 19 24 12 73 16 83 38 97 18 12 30 13 64 3 31 -8 57 -8 95 0 79 16 108 -9
108 -93 0 -19 5 -34 10 -34 6 0 10 30 10 69 0 60 -3 72 -21 85 -19 13 -20 18
-10 47 13 37 9 46 -9 24 -19 -23 -31 -18 -20 11 18 47 13 58 -16 35 -34 -26
-48 -27 -41 -1 5 18 2 18 -37 -5 -24 -14 -48 -25 -54 -25 -9 0 -12 124 -12
489 l0 490 22 15 c20 14 126 16 945 16 896 0 923 1 923 19 0 10 -3 33 -6 50
l-6 31 -162 0 c-170 0 -386 21 -439 44 -24 9 -116 13 -367 14 l-335 2 -29 77
c-15 43 -71 195 -123 338 -53 143 -96 260 -97 261 0 0 -71 -26 -156 -57z"/>
<path d="M2960 5886 c0 -2 8 -10 18 -17 15 -13 16 -12 3 4 -13 16 -21 21 -21
13z"/>
<path d="M3060 5861 c0 -6 4 -13 10 -16 6 -3 7 1 4 9 -7 18 -14 21 -14 7z"/>
<path d="M2976 5833 c-6 -14 -5 -15 5 -6 7 7 10 15 7 18 -3 3 -9 -2 -12 -12z"/>
<path d="M3030 5816 c14 -13 27 -22 29 -20 6 5 -35 44 -46 44 -4 0 4 -11 17
-24z"/>
<path d="M2460 5778 c0 -12 3 -18 7 -14 11 10 12 36 2 36 -5 0 -9 -10 -9 -22z"/>
<path d="M3141 5764 c0 -11 3 -14 6 -6 3 7 2 16 -1 19 -3 4 -6 -2 -5 -13z"/>
<path d="M3095 5760 c3 -5 8 -10 11 -10 2 0 4 5 4 10 0 6 -5 10 -11 10 -5 0
-7 -4 -4 -10z"/>
<path d="M3093 5695 c0 -8 4 -15 9 -15 4 0 8 4 8 9 0 6 -4 12 -8 15 -5 3 -9
-1 -9 -9z"/>
<path d="M2564 5653 c4 -4 19 -9 34 -11 35 -4 25 5 -12 12 -16 3 -25 2 -22 -1z"/>
<path d="M2957 5647 c-3 -8 1 -14 8 -14 7 0 11 6 8 14 -3 7 -6 13 -8 13 -2 0
-5 -6 -8 -13z"/>
<path d="M3005 5640 c3 -5 8 -10 11 -10 2 0 4 5 4 10 0 6 -5 10 -11 10 -5 0
-7 -4 -4 -10z"/>
<path d="M4915 5611 c17 -4 41 -7 53 -5 46 3 142 -127 142 -193 0 -12 5 -25
10 -28 13 -8 13 -7 -11 70 -15 51 -31 78 -68 116 -46 47 -49 49 -102 48 -44
-1 -48 -3 -24 -8z"/>
<path d="M2580 5599 c0 -11 37 -12 43 -1 3 4 -6 8 -19 8 -13 1 -24 -2 -24 -7z"/>
<path d="M2506 5577 c3 -10 9 -15 12 -12 3 3 0 11 -7 18 -10 9 -11 8 -5 -6z"/>
<path d="M2956 5577 c3 -10 9 -15 12 -12 3 3 0 11 -7 18 -10 9 -11 8 -5 -6z"/>
<path d="M2566 5557 c-7 -28 -3 -30 16 -7 13 15 14 19 3 24 -7 2 -15 -4 -19
-17z"/>
<path d="M2875 5570 c3 -5 8 -10 11 -10 2 0 4 5 4 10 0 6 -5 10 -11 10 -5 0
-7 -4 -4 -10z"/>
<path d="M3094 5552 c4 -3 14 -7 22 -8 9 -1 13 0 10 4 -4 3 -14 7 -22 8 -9 1
-13 0 -10 -4z"/>
<path d="M2976 5538 c3 -5 10 -6 15 -3 13 9 11 12 -6 12 -8 0 -12 -4 -9 -9z"/>
<path d="M2530 5526 c0 -2 7 -9 15 -16 13 -11 14 -10 9 4 -5 14 -24 23 -24 12z"/>
<path d="M2665 5520 c3 -5 8 -10 11 -10 2 0 4 5 4 10 0 6 -5 10 -11 10 -5 0
-7 -4 -4 -10z"/>
<path d="M2586 5493 c-6 -14 -5 -15 5 -6 7 7 10 15 7 18 -3 3 -9 -2 -12 -12z"/>
<path d="M3061 5494 c0 -11 3 -14 6 -6 3 7 2 16 -1 19 -3 4 -6 -2 -5 -13z"/>
<path d="M3205 5490 c-4 -6 -12 -7 -18 -4 -8 5 -8 3 0 -6 20 -22 41 -21 36 1
-6 22 -9 23 -18 9z"/>
<path d="M2613 5472 c1 -12 6 -18 15 -15 7 3 10 9 5 12 -4 3 -11 10 -15 15 -4
4 -6 -1 -5 -12z"/>
<path d="M3000 5486 c0 -2 6 -9 14 -15 11 -9 16 -9 22 0 4 8 3 9 -4 5 -7 -4
-12 -2 -12 3 0 6 -4 11 -10 11 -5 0 -10 -2 -10 -4z"/>
<path d="M3109 5475 c-1 -3 -2 -8 -3 -12 -1 -5 -5 -15 -10 -23 -7 -12 -6 -13
4 -3 13 12 23 43 14 43 -2 0 -5 -2 -5 -5z"/>
<path d="M2556 5452 c-3 -4 4 -9 15 -9 23 -2 25 3 4 10 -8 4 -16 3 -19 -1z"/>
<path d="M3260 5451 c0 -7 -4 -9 -10 -6 -5 3 -10 1 -10 -4 0 -6 4 -11 9 -11
13 0 25 20 17 27 -3 4 -6 1 -6 -6z"/>
<path d="M3198 5443 c6 -2 18 -2 25 0 6 3 1 5 -13 5 -14 0 -19 -2 -12 -5z"/>
<path d="M2595 5420 c-3 -5 -1 -11 4 -14 5 -4 12 -2 16 4 4 6 12 7 18 4 7 -4
8 -3 4 1 -11 12 -36 15 -42 5z"/>
<path d="M4912 5390 c0 -14 2 -19 5 -12 2 6 2 18 0 25 -3 6 -5 1 -5 -13z"/>
<path d="M2654 5388 c3 -10 -1 -18 -12 -21 -16 -4 -16 -5 0 -6 22 -1 29 11 16
29 -8 12 -9 12 -4 -2z"/>
<path d="M2700 5389 c0 -5 5 -7 10 -4 6 3 10 8 10 11 0 2 -4 4 -10 4 -5 0 -10
-5 -10 -11z"/>
<path d="M3050 5390 c8 -5 26 -10 39 -10 32 0 24 6 -19 14 -25 4 -31 3 -20 -4z"/>
<path d="M3125 5390 c-4 -6 3 -10 14 -10 25 0 27 6 6 13 -8 4 -17 2 -20 -3z"/>
<path d="M2560 5379 c0 -5 5 -7 10 -4 6 3 10 8 10 11 0 2 -4 4 -10 4 -5 0 -10
-5 -10 -11z"/>
<path d="M2758 5383 c6 -2 18 -2 25 0 6 3 1 5 -13 5 -14 0 -19 -2 -12 -5z"/>
<path d="M2978 5383 c12 -2 30 -2 40 0 9 3 -1 5 -23 4 -22 0 -30 -2 -17 -4z"/>
<path d="M2710 5370 c-9 -6 -10 -10 -3 -10 6 0 15 5 18 10 8 12 4 12 -15 0z"/>
<path d="M5134 5287 c0 -45 -4 -109 -9 -142 -7 -50 -10 -56 -17 -35 -5 16 -6
8 -2 -22 5 -46 4 -48 -20 -48 -21 0 -26 5 -26 25 0 18 -4 23 -15 19 -11 -5
-13 -2 -9 10 3 9 2 16 -4 16 -5 0 -12 -7 -16 -15 -3 -8 -1 -15 5 -15 6 0 7 -4
4 -10 -3 -6 1 -7 9 -4 11 4 16 0 16 -10 0 -9 -5 -16 -11 -16 -5 0 -7 -5 -3
-12 4 -7 3 -8 -5 -4 -6 4 -9 12 -6 17 4 5 3 9 -2 10 -4 0 -16 2 -25 4 -10 2
-20 -5 -23 -16 -4 -10 -14 -19 -23 -20 -11 0 -12 -3 -4 -6 14 -6 17 -63 2 -63
-5 0 -10 -7 -10 -16 0 -13 -3 -14 -14 -5 -12 10 -15 8 -19 -11 -3 -17 -5 -15
-6 10 -2 46 -21 40 -21 -8 0 -25 -4 -39 -12 -38 -6 2 -22 -32 -37 -79 l-26
-83 -73 0 c-66 0 -72 2 -64 18 6 12 -8 246 -17 270 -1 1 -360 2 -798 2 -779 0
-799 -1 -831 -20 -62 -38 -72 -69 -72 -217 l0 -133 900 0 901 0 49 -25 c27
-14 52 -25 56 -25 3 0 4 11 2 25 -5 24 -4 25 52 25 39 0 75 -8 113 -25 56 -24
82 -20 57 10 -11 13 135 15 1164 15 l1176 0 0 133 c0 148 -10 179 -72 217 -32
20 -53 20 -1137 20 -968 0 -1102 2 -1097 15 3 8 11 53 17 100 l12 85 1253 0
1254 0 -1 -705 0 -705 -184 0 c-102 0 -185 -2 -185 -5 0 -4 7 -20 16 -37 15
-28 15 -32 1 -40 -54 -30 -105 -80 -130 -128 -25 -48 -28 -63 -24 -115 8 -104
78 -208 186 -276 l45 -29 13 42 c8 28 9 47 2 60 -9 17 -12 17 -33 3 -22 -15
-24 -15 -22 1 0 9 -6 18 -15 19 -12 2 -15 -3 -12 -19 4 -17 3 -18 -6 -6 -10
13 -11 13 -12 0 -1 -8 0 -19 1 -25 1 -5 -10 1 -24 14 -30 29 -36 43 -6 16 20
-18 20 -17 20 28 0 25 -5 49 -10 52 -6 4 -8 11 -5 16 8 12 -4 49 -16 49 -5 0
-10 -10 -10 -22 -1 -18 -2 -19 -6 -5 -3 10 1 24 7 32 11 13 17 8 40 -29 16
-24 33 -47 40 -51 8 -5 8 -11 -2 -23 -11 -15 -11 -15 3 -5 19 16 40 -1 32 -26
-5 -13 -3 -14 7 -4 11 10 17 10 31 -3 11 -10 19 -12 24 -5 3 6 2 11 -3 11 -18
0 -87 62 -119 107 -49 70 -41 142 22 191 14 11 25 23 25 28 0 4 -15 -7 -33
-24 -18 -18 -37 -29 -42 -25 -4 5 -6 3 -2 -2 3 -6 1 -17 -4 -25 -14 -23 -6 20
9 48 7 12 9 22 5 21 -25 -4 -25 4 2 25 l29 23 -23 8 c-17 5 -30 0 -52 -21 -15
-15 -26 -32 -22 -37 4 -6 1 -7 -6 -2 -9 5 -3 17 21 42 30 32 87 69 92 61 1 -2
11 -23 21 -48 11 -25 22 -47 25 -50 6 -5 103 -220 113 -252 6 -17 37 -18 462
-18 398 0 455 2 455 15 0 13 -24 15 -159 15 -139 0 -160 2 -165 17 -4 9 -1 21
6 26 10 6 9 7 -4 4 -11 -4 -18 2 -22 16 -3 12 -4 22 -3 24 1 1 49 -3 106 -8
103 -10 104 -10 168 20 92 43 193 112 199 136 4 17 -11 255 -18 285 -2 6 28
21 65 34 37 14 73 29 80 34 7 5 22 13 35 16 22 7 22 7 22 -116 0 -245 -25
-341 -105 -402 -32 -25 -35 -32 -35 -77 0 -95 -64 -176 -164 -209 -22 -7 -96
-23 -165 -35 l-126 -23 223 -1 c220 -1 222 -1 210 19 -7 11 -22 21 -33 21 -16
1 -17 2 -3 6 9 2 15 10 12 16 -2 7 37 59 87 117 50 58 159 184 243 280 83 96
169 195 192 220 22 25 86 98 142 164 95 110 102 121 102 161 0 24 -3 51 -6 60
-6 14 -431 396 -502 450 -14 11 -87 73 -161 139 -75 65 -152 125 -171 133 -44
19 -94 6 -134 -36 l-28 -29 -35 23 c-38 26 -101 39 -162 33 l-39 -3 -4 176 -3
177 -30 43 c-16 23 -48 52 -70 63 -40 21 -42 21 -1420 23 l-1380 2 -1 -82z
m-116 -322 c-3 -30 -2 -29 -19 -8 -10 11 -10 14 -1 9 7 -4 12 -1 12 9 0 10 -5
13 -12 9 -7 -4 -8 -3 -4 5 11 18 26 3 24 -24z m2165 -57 c34 -18 46 -40 47
-81 0 -51 -13 -73 -51 -86 -23 -8 -299 -11 -925 -11 l-893 0 -26 23 c-18 15
-28 36 -32 64 -5 37 -2 45 25 73 l30 30 902 0 c666 0 907 -3 923 -12z m-3885
-34 c12 -14 22 -36 22 -50 0 -36 -42 -74 -81 -74 -69 0 -106 82 -56 127 42 39
77 38 115 -3z m311 26 c20 0 51 -44 51 -72 0 -92 -135 -107 -155 -18 -11 49
41 108 83 94 8 -2 17 -4 21 -4z m357 -9 c39 -24 50 -61 29 -100 -25 -49 -81
-57 -123 -18 -18 17 -22 30 -20 62 3 35 8 42 38 57 43 22 38 22 76 -1z m967 4
c-3 -9 -8 -14 -10 -11 -3 3 -2 9 2 15 9 16 15 13 8 -4z m3213 -241 c40 -20 93
-39 118 -41 52 -6 71 -23 62 -55 -10 -37 -22 -50 -50 -51 -15 -1 -26 -8 -26
-17 -1 -8 -9 -30 -19 -49 -16 -31 -17 -36 -2 -78 14 -38 19 -43 39 -38 32 8
27 -8 -13 -43 -53 -47 -125 -54 -182 -16 -28 18 -29 30 -3 37 32 8 24 35 -12
42 -67 14 -108 46 -136 106 -14 31 -35 60 -47 65 -28 12 -30 39 -6 63 12 12
21 32 21 46 0 35 34 99 66 124 l26 21 46 -41 c25 -22 78 -56 118 -75z m-3200
68 c-10 -2 -22 0 -28 6 -6 6 0 7 19 4 21 -5 23 -7 9 -10z m67 1 c-7 -2 -21 -2
-30 0 -10 3 -4 5 12 5 17 0 24 -2 18 -5z m3612 -543 c10 -11 16 -20 13 -20 -3
0 -13 9 -23 20 -10 11 -16 20 -13 20 3 0 13 -9 23 -20z m89 -172 c-3 -4 -11
-8 -17 -7 -9 0 -9 2 0 5 7 3 9 13 6 22 -4 14 -3 14 5 2 6 -8 8 -18 6 -22z
m-927 -20 c-3 -8 -6 -5 -6 6 -1 11 2 17 5 13 3 -3 4 -12 1 -19z m788 -43 c-16
-8 -37 -14 -45 -14 -8 0 1 7 20 14 46 18 64 17 25 0z m-745 -5 c8 -5 11 -10 5
-10 -5 0 -17 5 -25 10 -8 5 -10 10 -5 10 6 0 17 -5 25 -10z m677 -16 c-3 -3
-12 -4 -19 -1 -8 3 -5 6 6 6 11 1 17 -2 13 -5z m-570 -19 c26 -8 55 -119 60
-232 3 -62 3 -113 0 -113 -3 0 -27 54 -53 120 -45 114 -49 120 -76 120 -27 0
-28 1 -28 53 0 30 3 57 7 60 6 6 58 1 90 -8z m-692 -285 c-3 -5 -11 -10 -16
-10 -6 0 -7 5 -4 10 3 6 11 10 16 10 6 0 7 -4 4 -10z m-64 -64 c-18 -22 -25
-104 -11 -121 13 -16 6 -35 -7 -21 -14 13 -8 130 7 166 13 31 15 33 18 12 2
-13 -1 -29 -7 -36z m64 27 c-10 -10 -13 -22 -9 -32 5 -9 8 -38 9 -66 0 -42 -3
-50 -17 -49 -10 1 -18 -4 -18 -12 0 -7 -3 -15 -8 -18 -9 -5 -7 58 3 74 6 9 10
9 16 -1 5 -8 9 -9 10 -4 0 6 2 18 4 29 3 17 2 17 -18 -2 -21 -19 -47 -20 -47
-1 0 4 8 5 18 2 13 -5 15 -4 6 8 -8 10 -7 21 2 39 12 22 20 15 15 -12 0 -5 4
-8 9 -8 14 0 12 12 -6 38 -14 21 -14 23 8 31 31 12 42 4 23 -16z m393 -27 c-4
-24 -37 -34 -49 -14 -12 18 -11 24 7 43 20 20 46 2 42 -29z m-428 -215 c0 -5
9 -16 21 -24 11 -8 16 -18 11 -21 -6 -3 -24 15 -41 41 -35 52 -42 80 -11 40
11 -14 20 -30 20 -36z m167 -116 c-6 -19 -13 -35 -16 -35 -14 1 -55 39 -48 46
4 4 15 0 25 -9 19 -18 32 -14 32 10 0 9 -5 11 -12 7 -9 -5 -9 -3 1 9 21 26 30
11 18 -28z"/>
<path d="M8091 4636 c2 -2 20 -6 39 -10 25 -4 31 -3 20 4 -14 9 -69 15 -59 6z"/>
<path d="M7958 4623 c6 -2 18 -2 25 0 6 3 1 5 -13 5 -14 0 -19 -2 -12 -5z"/>
<path d="M8097 4594 c-9 -10 2 -24 19 -24 8 0 14 7 14 15 0 15 -21 21 -33 9z"/>
<path d="M7955 4581 c-7 -12 12 -24 25 -16 11 7 4 25 -10 25 -5 0 -11 -4 -15
-9z"/>
<path d="M2660 5350 c-8 -5 -11 -12 -8 -16 4 -3 14 1 23 10 18 17 9 21 -15 6z"/>
<path d="M4923 5240 c0 -36 2 -50 4 -32 2 17 2 47 0 65 -2 17 -4 3 -4 -33z"/>
<path d="M5117 5268 c-2 -7 -1 -22 4 -33 6 -16 8 -14 8 13 1 33 -4 41 -12 20z"/>
<path d="M5015 5180 c3 -5 8 -10 11 -10 2 0 4 5 4 10 0 6 -5 10 -11 10 -5 0
-7 -4 -4 -10z"/>
<path d="M5000 5159 c0 -5 9 -9 20 -9 11 0 20 2 20 4 0 2 -9 6 -20 9 -11 3
-20 1 -20 -4z"/>
<path d="M5055 5150 c3 -5 8 -10 11 -10 2 0 4 5 4 10 0 6 -5 10 -11 10 -5 0
-7 -4 -4 -10z"/>
<path d="M2581 5134 c0 -11 3 -14 6 -6 3 7 2 16 -1 19 -3 4 -6 -2 -5 -13z"/>
<path d="M1409 5111 c-20 -10 -46 -27 -58 -38 -12 -11 -105 -80 -207 -154
-501 -364 -585 -428 -600 -466 -9 -20 -13 -47 -9 -62 9 -35 53 -101 66 -98 6
1 18 -9 26 -23 l15 -25 -21 25 c-11 14 -21 21 -21 17 0 -16 41 -67 50 -62 4 3
14 -3 21 -13 13 -15 12 -16 -3 -3 -10 7 -18 11 -18 7 0 -8 131 -186 137 -186
2 0 1 5 -3 12 -4 7 -3 8 5 4 6 -4 9 -12 5 -17 -8 -13 16 -40 29 -32 6 3 7 1 3
-6 -9 -13 32 -74 44 -66 5 3 12 0 16 -6 4 -8 3 -9 -4 -5 -18 11 -14 -3 8 -31
11 -14 20 -21 20 -14 0 6 10 11 23 11 13 0 28 5 34 11 12 12 37 3 28 -10 -2
-5 17 -9 43 -9 27 -1 79 -6 117 -11 37 -6 71 -9 74 -9 3 1 17 -3 31 -9 14 -6
59 -18 100 -27 41 -9 107 -26 146 -37 l71 -21 7 -82 c3 -44 6 -108 6 -141 0
-33 3 -77 6 -97 l7 -37 84 137 c47 75 87 139 88 140 2 2 16 -5 32 -16 15 -10
76 -49 134 -86 104 -65 237 -164 271 -202 17 -19 16 -22 -17 -69 -47 -65 -45
-92 11 -201 98 -188 231 -368 327 -440 l26 -19 5 -519 c5 -449 7 -522 21 -535
11 -11 36 -15 86 -16 l70 0 -6 -45 c-3 -25 -14 -51 -23 -58 -19 -14 -88 -16
-97 -2 -6 10 -137 -70 -143 -89 -3 -8 34 -11 127 -11 126 0 131 1 131 21 0 12
4 17 11 13 6 -3 96 -6 200 -5 162 2 190 0 195 -14 9 -22 254 -23 254 0 0 13
27 15 188 15 l187 0 -30 -25 -30 -24 103 -1 102 0 0 25 0 25 140 0 140 0 0
-25 0 -25 100 0 c55 0 100 3 100 6 0 3 -10 14 -22 25 -23 18 2 18 1255 16 702
-1 1277 1 1277 4 0 3 -10 11 -23 18 -31 17 -57 62 -57 100 l0 31 -1276 0
-1276 0 6 -42 c13 -84 14 -83 -22 -86 -44 -4 -58 9 -79 74 l-17 54 -116 0
-116 0 -10 -62 c-9 -62 -9 -63 -44 -66 -44 -5 -60 17 -60 80 l0 48 -275 0
-275 0 0 -39 c0 -43 -11 -51 -63 -51 -43 0 -58 11 -66 51 l-7 34 -169 5 c-94
3 -176 9 -182 13 -10 6 -9 13 3 32 12 18 113 577 114 629 0 28 17 -28 90 -294
44 -162 84 -298 89 -303 16 -16 94 -28 138 -21 79 12 79 9 44 351 -17 165 -31
311 -31 326 l0 26 81 -30 c45 -16 83 -28 85 -26 6 6 144 380 141 382 -7 6 -46
25 -51 25 -3 0 -6 -7 -6 -15 0 -8 -5 -15 -11 -15 -6 0 -8 8 -5 18 5 14 -9 23
-80 50 -82 31 -87 32 -105 16 -19 -17 -19 -16 -17 5 2 16 -4 26 -20 32 -20 8
-25 5 -34 -21 -5 -17 -14 -30 -19 -30 -10 0 -11 18 -14 235 -2 130 -14 232
-48 413 -10 50 -11 72 -3 72 6 0 46 -7 89 -15 120 -23 150 -20 192 17 71 61
192 270 202 347 5 37 3 41 -36 67 -23 15 -43 25 -45 23 -18 -20 -176 -221
-176 -225 0 -3 5 -2 12 2 7 4 8 3 4 -5 -4 -6 -11 -9 -16 -6 -4 3 -13 -2 -20
-10 -18 -22 -30 -19 -141 30 -96 43 -193 74 -204 64 -2 -3 2 -23 10 -46 17
-48 24 -173 11 -170 -5 1 -9 25 -8 52 2 28 -4 74 -12 104 -8 30 -13 58 -10 62
9 14 -15 48 -45 63 -37 20 -59 4 -63 -44 -2 -28 -9 -37 -31 -44 -42 -15 -82
10 -82 50 0 22 -10 39 -38 63 -20 18 -40 44 -43 57 -4 17 -13 24 -30 24 -23 0
-24 -4 -24 -58 0 -54 -3 -61 -38 -97 -21 -22 -68 -66 -104 -97 l-66 -57 -22
62 c-53 147 -185 404 -267 522 l-35 50 38 -40 c22 -22 52 -66 69 -98 19 -37
37 -60 52 -63 12 -3 22 -9 21 -13 -2 -20 3 -31 13 -26 6 4 6 -1 -2 -12 -9 -16
-8 -25 5 -49 12 -22 15 -23 11 -6 -5 17 -2 22 14 22 11 0 23 -5 26 -10 5 -8
11 -8 20 0 18 15 31 -6 14 -26 -6 -8 -9 -17 -6 -21 4 -3 2 -12 -4 -19 -7 -8
-7 -14 0 -18 16 -10 52 70 46 101 -4 22 -3 23 3 8 9 -19 9 -19 21 4 12 22 8
29 -81 115 -51 51 -122 134 -158 185 -36 52 -99 140 -140 196 -41 57 -126 174
-189 262 -309 426 -315 434 -379 433 -15 -1 -43 -9 -63 -19z m-645 -601 c31
-44 32 -48 8 -20 -17 19 -38 49 -48 65 -23 42 -5 21 40 -45z m-207 -72 c-3 -8
-6 -5 -6 6 -1 11 2 17 5 13 3 -3 4 -12 1 -19z m264 -5 c13 -16 12 -17 -3 -4
-10 7 -18 15 -18 17 0 8 8 3 21 -13z m59 -79 c18 -26 28 -44 22 -40 -6 4 -26
28 -43 53 -42 60 -24 49 21 -13z m-323 14 c-3 -7 -5 -2 -5 12 0 14 2 19 5 13
2 -7 2 -19 0 -25z m393 -113 c17 -25 29 -45 26 -45 -3 0 -19 20 -36 45 -17 25
-29 45 -26 45 3 0 19 -20 36 -45z m-211 -135 c23 -33 40 -60 38 -60 -3 0 -20
21 -39 48 -41 57 -50 72 -45 72 2 0 23 -27 46 -60z m311 0 c30 -43 18 -37 -16
7 -15 20 -23 33 -16 29 6 -3 21 -20 32 -36z m91 -127 c13 -16 12 -17 -3 -4
-10 7 -18 15 -18 17 0 8 8 3 21 -13z m39 -53 c12 -16 19 -30 16 -30 -2 0 -14
14 -26 30 -12 17 -19 30 -16 30 2 0 14 -13 26 -30z m-260 -50 c-8 -5 -18 -6
-24 -3 -5 4 -1 10 10 13 24 9 34 2 14 -10z m1675 -190 c3 -5 1 -10 -4 -10 -6
0 -11 5 -11 10 0 6 2 10 4 10 3 0 8 -4 11 -10z m118 -54 c18 -68 23 -176 8
-176 -5 0 -7 17 -4 38 4 33 -14 136 -32 185 -4 9 -3 17 2 17 5 0 17 -29 26
-64z m-223 -370 c0 -2 -7 -7 -16 -10 -8 -3 -12 -2 -9 4 6 10 25 14 25 6z m15
-224 c-2 -7 0 -10 5 -7 11 7 24 -38 17 -57 -3 -9 -7 -6 -13 7 -10 25 -112 173
-125 181 -5 3 -7 10 -4 15 9 13 126 -123 120 -139z m191 -323 c3 -6 1 -14 -5
-18 -6 -4 -9 -15 -6 -23 4 -10 -6 -30 -26 -52 l-32 -37 -28 27 -29 27 43 42
c43 43 70 54 83 34z"/>
<path d="M4912 5105 c0 -16 2 -22 5 -12 2 9 2 23 0 30 -3 6 -5 -1 -5 -18z"/>
<path d="M5069 5113 c-13 -16 -12 -17 4 -4 9 7 17 15 17 17 0 8 -8 3 -21 -13z"/>
<path d="M4975 5090 c-3 -5 -1 -10 4 -10 6 0 11 5 11 10 0 6 -2 10 -4 10 -3 0
-8 -4 -11 -10z"/>
<path d="M4896 5034 c-4 -20 -5 -38 -3 -40 3 -3 8 11 11 32 4 20 5 38 3 40 -3
3 -8 -11 -11 -32z"/>
<path d="M4917 5003 c-10 -9 -9 -53 1 -53 4 0 8 14 7 30 0 17 0 30 -1 30 0 0
-4 -3 -7 -7z"/>
<path d="M2865 4010 c-4 -6 8 -10 30 -10 22 0 34 4 30 10 -3 6 -17 10 -30 10
-13 0 -27 -4 -30 -10z"/>
<path d="M2726 4002 c-3 -5 11 -8 29 -8 19 1 35 4 35 9 0 10 -58 9 -64 -1z"/>
<path d="M2757 3974 c-8 -8 1 -24 14 -24 5 0 9 7 9 15 0 15 -12 20 -23 9z"/>
<path d="M2880 3964 c0 -9 5 -14 12 -12 18 6 21 28 4 28 -9 0 -16 -7 -16 -16z"/>
<path d="M5595 3946 c-82 -18 -101 -26 -103 -42 -2 -10 -8 -36 -13 -56 l-10
-38 -404 0 c-247 0 -406 -4 -410 -10 -3 -5 -1 -17 5 -27 5 -10 37 -85 70 -168
33 -82 69 -169 80 -192 l20 -43 275 0 c292 0 282 2 269 -47 l-6 -23 -234 0
c-149 0 -234 -4 -234 -10 0 -5 16 -10 35 -10 l34 0 -24 -25 c-32 -31 -32 -69
0 -100 30 -30 54 -31 89 -4 33 26 35 73 4 106 l-21 23 121 0 121 0 -24 -25
c-39 -38 -28 -93 22 -114 77 -31 137 56 78 114 l-24 25 38 0 c44 0 31 -42 112
362 l54 266 80 17 c106 22 115 25 115 36 0 11 7 12 -115 -15z m-725 -198 c6
-24 13 -51 16 -60 5 -16 -3 -18 -76 -18 l-81 0 -19 46 c-32 73 -31 74 65 74
l84 0 11 -42z m210 -18 l0 -60 -83 0 -84 0 -11 51 c-7 28 -12 55 -12 60 0 5
43 9 95 9 l95 0 0 -60z m180 31 c0 -16 -3 -43 -6 -60 l-6 -31 -74 0 -74 0 0
53 c0 30 3 57 7 60 3 4 39 7 80 7 l73 0 0 -29z m198 7 c2 -9 -2 -35 -8 -57
l-11 -41 -82 0 -82 0 3 48 c5 75 2 73 94 70 68 -2 83 -6 86 -20z m-551 -173
c20 -78 21 -76 -53 -73 l-66 3 -24 59 c-13 33 -24 61 -24 63 0 2 35 3 77 1
l77 -3 13 -50z m173 -10 l0 -66 -67 3 -67 3 -12 55 c-7 30 -13 58 -14 63 0 4
36 7 80 7 l80 0 0 -65z m165 38 c-2 -16 -7 -45 -10 -65 l-6 -38 -64 0 -65 0 0
58 c0 32 3 62 7 65 3 4 37 7 74 7 l69 0 -5 -27z m187 22 c3 -3 0 -31 -6 -63
l-12 -57 -77 -3 -77 -3 0 34 c0 19 3 49 6 66 l7 31 77 0 c42 0 79 -2 82 -5z
m-493 -182 c20 -69 17 -73 -43 -73 l-53 0 -19 47 c-11 27 -20 51 -22 55 -2 5
26 8 62 8 l65 0 10 -37z m141 -18 l0 -55 -49 0 c-28 0 -52 4 -55 9 -4 5 -9 30
-12 55 l-7 46 62 0 61 0 0 -55z m143 13 c-8 -69 -8 -69 -65 -66 l-53 3 -3 53
-3 52 65 0 64 0 -5 -42z m183 26 c-3 -9 -9 -33 -12 -55 l-7 -39 -73 0 c-82 0
-80 -2 -68 73 l7 37 79 0 c69 0 79 -2 74 -16z m-388 -240 c41 -29 23 -84 -28
-84 -48 0 -67 45 -33 82 20 22 32 23 61 2z m302 -4 c23 -23 25 -40 8 -62 -23
-28 -48 -29 -74 -3 -13 13 -24 29 -24 35 0 15 38 50 55 50 8 0 24 -9 35 -20z"/>
<path d="M2345 3900 c-3 -5 -1 -10 4 -10 6 0 11 5 11 10 0 6 -2 10 -4 10 -3 0
-8 -4 -11 -10z"/>
<path d="M2320 3885 c6 -8 9 -19 5 -25 -3 -5 -1 -10 4 -10 6 0 11 4 11 9 0 18
-12 41 -22 41 -6 0 -5 -6 2 -15z"/>
<path d="M2461 3859 c-28 -11 -26 -16 13 -23 16 -3 31 -7 33 -10 8 -8 -7 -26
-23 -26 -8 0 -14 -4 -14 -10 0 -13 23 -13 37 1 8 8 14 5 23 -10 6 -12 9 -25 6
-30 -3 -4 1 -8 9 -8 19 0 20 -2 -15 67 -32 64 -32 64 -69 49z"/>
<path d="M2416 3833 c-10 -10 -76 -32 -71 -23 3 4 -2 10 -10 14 -16 6 -19 -3
-9 -28 3 -9 11 -13 17 -9 6 4 8 0 5 -8 -4 -11 3 -16 24 -17 23 -2 29 1 25 12
-7 18 20 49 35 40 6 -4 1 -12 -13 -20 -13 -7 -21 -13 -16 -14 4 0 23 8 42 19
l34 18 -25 12 c-29 13 -29 13 -38 4z"/>
<path d="M2446 3765 c4 -8 8 -15 10 -15 2 0 4 7 4 15 0 8 -4 15 -10 15 -5 0
-7 -7 -4 -15z"/>
<path d="M7296 3682 c-3 -5 1 -9 9 -9 8 0 12 4 9 9 -3 4 -7 8 -9 8 -2 0 -6 -4
-9 -8z"/>
<path d="M611 3524 c0 -11 3 -14 6 -6 3 7 2 16 -1 19 -3 4 -6 -2 -5 -13z"/>
<path d="M622 3450 c0 -14 2 -19 5 -12 2 6 2 18 0 25 -3 6 -5 1 -5 -13z"/>
<path d="M631 3384 c0 -11 3 -14 6 -6 3 7 2 16 -1 19 -3 4 -6 -2 -5 -13z"/>
<path d="M641 3334 c0 -11 3 -14 6 -6 3 7 2 16 -1 19 -3 4 -6 -2 -5 -13z"/>
<path d="M9494 3255 c0 -55 1 -76 3 -47 2 29 2 74 0 100 -2 26 -3 2 -3 -53z"/>
<path d="M651 3284 c0 -11 3 -14 6 -6 3 7 2 16 -1 19 -3 4 -6 -2 -5 -13z"/>
<path d="M9483 3095 c0 -22 2 -30 4 -17 2 12 2 30 0 40 -3 9 -5 -1 -4 -23z"/>
<path d="M9472 3015 c0 -16 2 -22 5 -12 2 9 2 23 0 30 -3 6 -5 -1 -5 -18z"/>
<path d="M3834 3003 c5 -28 2 -33 -14 -33 -10 0 -22 -4 -25 -10 -3 -5 1 -10
10 -10 13 0 15 -5 8 -22 -9 -25 -10 -144 -2 -153 10 -9 73 17 132 56 45 30 57
34 52 19 -10 -32 15 -33 55 -1 l39 31 27 -50 c15 -28 31 -50 36 -50 14 0 9
128 -6 165 -22 52 -58 70 -141 70 -38 0 -85 -6 -102 -14 -31 -12 -34 -12 -54
10 l-20 24 5 -32z"/>
<path d="M9462 2950 c0 -14 2 -19 5 -12 2 6 2 18 0 25 -3 6 -5 1 -5 -13z"/>
<path d="M751 2944 c-2 -19 26 -47 40 -41 11 4 11 6 -2 6 -9 1 -21 11 -27 24
-6 12 -11 17 -11 11z"/>
<path d="M1018 2933 c6 -2 18 -2 25 0 6 3 1 5 -13 5 -14 0 -19 -2 -12 -5z"/>
<path d="M933 2923 c9 -2 25 -2 35 0 9 3 1 5 -18 5 -19 0 -27 -2 -17 -5z"/>
<path d="M858 2913 c6 -2 18 -2 25 0 6 3 1 5 -13 5 -14 0 -19 -2 -12 -5z"/>
<path d="M9452 2900 c0 -14 2 -19 5 -12 2 6 2 18 0 25 -3 6 -5 1 -5 -13z"/>
<path d="M961 2823 l-76 -77 80 74 c44 41 82 76 84 77 2 2 1 3 -4 3 -4 0 -42
-35 -84 -77z"/>
<path d="M9442 2850 c0 -14 2 -19 5 -12 2 6 2 18 0 25 -3 6 -5 1 -5 -13z"/>
<path d="M9431 2804 c0 -11 3 -14 6 -6 3 7 2 16 -1 19 -3 4 -6 -2 -5 -13z"/>
<path d="M3890 2770 c-10 -6 -3 -8 23 -7 20 1 37 5 37 10 0 10 -42 9 -60 -3z"/>
<path d="M4020 2773 c0 -5 13 -8 30 -9 16 -1 27 3 24 7 -6 11 -54 12 -54 2z"/>
<path d="M9421 2764 c0 -11 3 -14 6 -6 3 7 2 16 -1 19 -3 4 -6 -2 -5 -13z"/>
<path d="M4737 2763 c-12 -3 -16 -10 -12 -24 4 -10 2 -19 -3 -19 -6 0 -12 6
-15 13 -3 9 -27 4 -93 -19 -80 -28 -89 -33 -86 -54 2 -14 0 -20 -7 -16 -6 4
-11 14 -11 22 0 12 -4 12 -31 -1 -17 -9 -29 -22 -26 -28 2 -7 35 -93 72 -192
37 -99 68 -181 70 -183 2 -2 223 77 297 107 l28 10 -31 83 c-17 46 -49 134
-72 196 -23 61 -46 111 -52 111 -5 -1 -18 -3 -28 -6z"/>
<path d="M3910 2736 c0 -9 7 -16 16 -16 9 0 14 5 12 12 -6 18 -28 21 -28 4z"/>
<path d="M4030 2735 c0 -9 5 -15 11 -13 6 2 11 8 11 13 0 5 -5 11 -11 13 -6 2
-11 -4 -11 -13z"/>
<path d="M861 2731 c-10 -7 -11 -13 -2 -30 7 -11 14 -21 17 -21 2 0 0 8 -5 18
-7 13 -6 23 1 30 14 14 9 15 -11 3z"/>
<path d="M9386 2655 c-3 -9 -6 -22 -5 -28 0 -7 5 -1 10 12 5 13 8 26 5 28 -2
2 -6 -3 -10 -12z"/>
<path d="M900 2630 c6 -11 13 -20 16 -20 2 0 0 9 -6 20 -6 11 -13 20 -16 20
-2 0 0 -9 6 -20z"/>
<path d="M9366 2595 c-9 -26 -7 -32 5 -12 6 10 9 21 6 23 -2 3 -7 -2 -11 -11z"/>
<path d="M3665 2563 c-3 -21 -15 -57 -25 -81 l-19 -42 42 -27 c23 -14 56 -35
72 -47 24 -16 27 -17 16 -3 -8 10 -34 30 -58 44 -48 28 -52 32 -23 30 11 -1
22 -8 25 -17 6 -13 9 -12 21 4 10 15 14 16 15 5 0 -8 4 -6 9 6 8 19 9 19 9 -4
1 -16 -3 -22 -14 -18 -8 4 -17 2 -20 -3 -7 -11 31 -23 46 -15 6 4 9 16 6 26
-3 11 -1 19 4 19 5 0 9 5 9 11 0 5 -4 8 -9 5 -5 -4 -11 0 -14 6 -5 16 23 78
35 78 5 0 7 -4 4 -8 -3 -5 4 -16 16 -26 17 -15 20 -26 16 -67 -3 -26 -1 -46 4
-43 4 3 8 32 8 65 0 54 -2 59 -22 60 -15 1 -11 4 12 9 28 6 30 8 10 9 -20 1
-76 22 -156 57 -7 3 -14 -10 -19 -33z m35 13 c0 -3 -4 -8 -10 -11 -5 -3 -10
-1 -10 4 0 6 5 11 10 11 6 0 10 -2 10 -4z m80 -30 c0 -11 -19 -15 -25 -6 -3 5
1 10 9 10 9 0 16 -2 16 -4z m-116 -73 c4 -10 4 -14 0 -10 -4 4 -13 -1 -21 -11
-11 -15 -12 -13 -2 11 14 32 15 32 23 10z"/>
<path d="M4235 2573 c-33 -13 -80 -28 -105 -33 l-45 -8 40 -1 c36 -1 38 -3 23
-15 -12 -9 -18 -26 -17 -52 l2 -39 6 35 c8 46 19 19 15 -40 -2 -33 0 -40 8
-26 5 9 7 23 4 31 -3 9 2 13 17 12 24 -1 49 -26 40 -40 -3 -5 13 1 35 12 22
11 42 26 44 32 2 7 10 10 17 8 13 -5 -92 -79 -110 -79 -5 0 -9 -5 -9 -11 0
-11 -1 -12 87 44 l62 38 -16 26 c-10 14 -22 50 -28 78 l-10 53 -60 -25z m55
-13 c0 -11 -2 -20 -4 -20 -2 0 -6 9 -9 20 -3 11 -1 20 4 20 5 0 9 -9 9 -20z
m-24 -2 c4 -7 3 -8 -4 -4 -7 4 -12 3 -12 -3 0 -6 -7 -8 -16 -4 -13 5 -13 7 -2
14 18 12 26 11 34 -3z m-1 -38 c-3 -5 -12 -10 -18 -10 -7 0 -6 4 3 10 19 12
23 12 15 0z m55 -52 c0 -5 -7 -8 -15 -8 -9 0 -12 6 -9 15 7 18 -7 20 -26 3 -7
-7 -5 -1 6 14 l19 26 12 -21 c7 -12 12 -25 13 -29z m-113 15 c0 -10 -4 -10
-16 -1 -9 7 -18 13 -20 15 -2 1 5 1 16 0 11 0 20 -7 20 -14z m25 -46 c-2 -10
-5 -16 -6 -15 -1 2 -7 10 -13 18 -10 13 -8 16 6 16 13 0 17 -6 13 -19z"/>
<path d="M9178 2573 c12 -2 30 -2 40 0 9 3 -1 5 -23 4 -22 0 -30 -2 -17 -4z"/>
<path d="M9268 2563 c12 -2 32 -2 45 0 12 2 2 4 -23 4 -25 0 -35 -2 -22 -4z"/>
<path d="M9125 2540 c10 -11 20 -20 23 -20 3 0 -3 9 -13 20 -10 11 -20 20 -23
20 -3 0 3 -9 13 -20z"/>
<path d="M7793 2536 c-56 -10 -65 -15 -92 -53 -17 -24 -31 -50 -31 -59 0 -19
17 -14 114 32 64 31 71 37 71 64 1 17 1 30 0 29 0 -1 -28 -6 -62 -13z"/>
<path d="M7548 2521 c-30 -5 -43 -15 -69 -54 -45 -68 -30 -76 66 -32 99 45
108 52 94 76 -10 19 -24 21 -91 10z"/>
<path d="M980 2506 c0 -2 8 -10 18 -17 15 -13 16 -12 3 4 -13 16 -21 21 -21
13z"/>
<path d="M3910 2496 c0 -3 19 -10 42 -16 30 -9 38 -14 27 -20 -8 -6 -16 -4
-21 3 -4 6 -11 8 -15 3 -8 -8 23 -36 41 -36 6 0 4 5 -4 10 -12 8 -11 10 8 10
12 0 22 -4 22 -10 0 -5 7 -7 16 -3 9 3 20 0 25 -8 6 -10 9 -3 8 21 0 29 -2 31
-9 15 -5 -11 -9 -15 -9 -8 -1 6 -11 9 -23 7 -17 -4 -13 1 12 16 26 15 28 19
10 13 -32 -9 -67 -9 -102 1 -16 5 -28 6 -28 2z"/>
<path d="M9234 2443 c28 -29 52 -50 55 -48 2 3 2 6 0 8 -2 1 -27 22 -54 47
l-50 45 49 -52z"/>
<path d="M1010 2466 c0 -2 8 -10 18 -17 15 -13 16 -12 3 4 -13 16 -21 21 -21
13z"/>
<path d="M3882 2439 c1 -20 4 -26 9 -17 12 18 11 48 0 48 -5 0 -9 -14 -9 -31z"/>
<path d="M3916 2442 c-3 -5 1 -9 9 -9 8 0 12 4 9 9 -3 4 -7 8 -9 8 -2 0 -6 -4
-9 -8z"/>
<path d="M1060 2405 c13 -14 26 -25 28 -25 3 0 -5 11 -18 25 -13 14 -26 25
-28 25 -3 0 5 -11 18 -25z"/>
<path d="M3965 2412 c-2 -3 -2 -8 1 -13 5 -9 34 -1 34 10 0 8 -27 10 -35 3z"/>
<path d="M4070 2406 c0 -8 -4 -16 -9 -18 -5 -1 -3 -9 5 -16 12 -11 14 -8 14
18 0 16 -2 30 -5 30 -3 0 -5 -6 -5 -14z"/>
<path d="M3910 2399 c0 -5 -4 -7 -10 -4 -5 3 -10 1 -10 -4 0 -6 7 -11 15 -11
8 0 15 7 15 15 0 8 -2 15 -5 15 -3 0 -5 -5 -5 -11z"/>
<path d="M4009 2394 c-12 -14 -11 -16 5 -13 11 2 21 10 24 17 5 17 -13 15 -29
-4z"/>
<path d="M6823 2330 c0 -47 2 -66 4 -42 2 23 2 61 0 85 -2 23 -4 4 -4 -43z"/>
<path d="M1431 2393 c-1 -6 -4 -20 -7 -30 -5 -17 -5 -17 6 0 6 10 9 23 6 30
-3 9 -5 9 -5 0z"/>
<path d="M4132 2365 c0 -16 2 -22 5 -12 2 9 2 23 0 30 -3 6 -5 -1 -5 -18z"/>
<path d="M3963 2363 c15 -2 37 -2 50 0 12 2 0 4 -28 4 -27 0 -38 -2 -22 -4z"/>
<path d="M1135 2320 c21 -22 41 -40 44 -40 3 0 -13 18 -34 40 -21 22 -41 40
-44 40 -3 0 13 -18 34 -40z"/>
<path d="M3845 2350 c-3 -6 1 -7 9 -4 18 7 21 14 7 14 -6 0 -13 -4 -16 -10z"/>
<path d="M9245 2330 c-9 -16 -13 -30 -11 -30 3 0 12 14 21 30 9 17 13 30 11
30 -3 0 -12 -13 -21 -30z"/>
<path d="M3811 2334 c0 -11 3 -14 6 -6 3 7 2 16 -1 19 -3 4 -6 -2 -5 -13z"/>
<path d="M4083 2336 c1 -11 9 -21 17 -23 10 -3 11 -2 4 4 -6 4 -14 15 -17 23
-5 11 -6 9 -4 -4z"/>
<path d="M3761 2208 c1 -73 3 -126 5 -118 7 36 10 250 2 250 -4 0 -7 -60 -7
-132z"/>
<path d="M4202 2333 c-1 -7 -9 -10 -17 -7 -10 4 -15 0 -15 -15 0 -12 5 -21 11
-21 5 0 7 6 3 13 -5 9 -4 9 6 0 8 -8 11 -36 9 -91 -2 -44 -1 -75 3 -69 4 7 7
-16 7 -51 -1 -54 5 -85 14 -71 1 2 -3 76 -9 164 -6 88 -12 155 -12 148z"/>
<path d="M9206 2265 c-9 -14 -23 -37 -32 -52 l-16 -28 20 24 c24 29 55 81 49
81 -3 0 -12 -11 -21 -25z"/>
<path d="M4181 2264 c0 -11 3 -14 6 -6 3 7 2 16 -1 19 -3 4 -6 -2 -5 -13z"/>
<path d="M3890 2229 c0 -59 13 -69 89 -69 78 0 101 16 101 68 l0 32 -95 0 -95
0 0 -31z"/>
<path d="M8760 2251 l-25 -7 -5 -384 c-4 -282 -8 -391 -17 -407 -7 -12 -13
-31 -13 -42 0 -19 4 -21 43 -15 76 10 181 35 242 57 67 25 65 21 51 132 l-8
60 60 -59 60 -58 94 63 c94 64 308 268 308 293 0 22 -127 134 -214 191 -45 29
-118 71 -164 94 l-84 41 -44 -49 c-25 -28 -54 -61 -64 -73 -20 -23 -20 -23
-14 63 l6 85 -65 12 c-70 13 -108 14 -147 3z"/>
<path d="M4182 2195 c0 -16 2 -22 5 -12 2 9 2 23 0 30 -3 6 -5 -1 -5 -18z"/>
<path d="M4165 2111 c3 -34 11 -61 22 -70 14 -13 15 -13 6 -1 -15 21 -22 81
-9 73 7 -5 7 -2 0 8 -6 8 -14 21 -18 29 -3 8 -4 -9 -1 -39z"/>
<path d="M3801 2124 c0 -11 3 -14 6 -6 3 7 2 16 -1 19 -3 4 -6 -2 -5 -13z"/>
<path d="M3785 2060 c4 -7 2 -16 -6 -21 -9 -5 -16 -3 -21 9 -5 12 -7 10 -7
-11 -1 -27 -1 -27 24 -11 27 18 31 29 13 40 -7 5 -8 3 -3 -6z"/>
<path d="M4601 2015 c-56 -48 -50 -146 11 -189 20 -14 90 -16 566 -16 465 0
547 2 572 15 39 20 51 45 52 108 0 45 -4 55 -31 79 l-31 28 -554 0 -554 0 -31
-25z m679 -45 c-16 -29 -12 -68 9 -89 14 -14 16 -22 8 -30 -8 -8 -4 -11 16
-11 15 0 27 -4 27 -10 0 -6 -57 -10 -150 -10 -127 0 -150 2 -150 15 0 17 -2
18 -26 8 -16 -6 -16 -7 2 -14 11 -5 -10 -7 -51 -7 -38 0 -61 3 -51 5 11 3 26
11 33 19 9 8 31 12 63 10 28 -1 50 0 50 3 0 3 17 7 37 9 47 3 59 15 38 36 -18
18 -45 22 -45 6 0 -5 9 -10 19 -10 11 0 23 -4 26 -10 4 -6 -8 -10 -30 -10
l-36 0 3 53 c3 48 5 52 31 55 15 2 27 -1 27 -7 0 -6 -9 -11 -20 -11 -11 0 -20
-7 -20 -15 0 -18 50 -21 68 -3 9 9 12 2 12 -35 0 -42 2 -47 23 -46 16 1 18 2
5 6 -14 3 -18 15 -18 54 0 60 17 65 48 12 l22 -38 0 43 c0 26 4 41 10 37 6 -3
10 -1 10 5 0 6 5 8 10 5 7 -4 7 -12 0 -25z m-335 -41 c0 -42 -1 -44 -32 -47
l-33 -3 0 49 c0 58 3 62 38 53 24 -7 27 -12 27 -52z m54 -32 c17 -17 31 3 31
44 0 21 5 39 10 39 12 0 13 -70 1 -88 -5 -8 -21 -12 -37 -10 -28 3 -29 5 -31
58 l-1 55 9 -44 c5 -25 13 -49 18 -54z m363 76 c24 -21 23 -58 -2 -83 -24 -24
-29 -24 -58 -4 -26 18 -29 60 -5 86 20 22 41 23 65 1z m42 -5 c16 -52 18 -54
28 -20 11 40 27 41 35 2 6 -32 23 -41 23 -12 0 20 17 49 24 41 10 -10 -21 -94
-35 -94 -8 0 -17 14 -20 30 -6 30 -9 28 -24 -21 -3 -9 -10 -14 -17 -12 -15 5
-40 98 -27 98 5 0 11 -6 13 -12z m-517 -128 c-1 -14 -8 -20 -25 -20 -13 0 -20
4 -17 10 3 6 13 10 21 10 8 0 14 5 14 10 0 6 2 10 4 10 3 0 4 -9 3 -20z"/>
<path d="M5200 1920 c0 -18 3 -30 7 -27 3 4 15 -1 26 -10 17 -16 16 -13 -4 22
-12 22 -24 42 -26 44 -2 2 -3 -11 -3 -29z"/>
<path d="M5245 1850 c-3 -5 -2 -10 4 -10 5 0 13 5 16 10 3 6 2 10 -4 10 -5 0
-13 -4 -16 -10z"/>
<path d="M4900 1956 c0 -9 7 -16 16 -16 17 0 14 22 -4 28 -7 2 -12 -3 -12 -12z"/>
<path d="M4900 1910 c0 -13 5 -18 15 -14 8 4 15 10 15 14 0 4 -7 10 -15 14
-10 4 -15 -1 -15 -14z"/>
<path d="M5306 1954 c-11 -28 -6 -52 11 -58 25 -10 47 17 39 48 -7 29 -40 36
-50 10z m30 -16 c-1 -13 -6 -25 -12 -27 -15 -7 -17 31 -2 40 18 12 17 12 14
-13z"/>
<path d="M3752 1980 c0 -14 2 -19 5 -12 2 6 2 18 0 25 -3 6 -5 1 -5 -13z"/>
<path d="M4232 1930 c0 -14 2 -19 5 -12 2 6 2 18 0 25 -3 6 -5 1 -5 -13z"/>
<path d="M3952 1835 c0 -16 2 -22 5 -12 2 9 2 23 0 30 -3 6 -5 -1 -5 -18z"/>
<path d="M4051 1835 c1 -19 18 -51 18 -35 0 8 -4 22 -9 30 -5 8 -9 11 -9 5z"/>
<path d="M4251 1824 c0 -11 3 -14 6 -6 3 7 2 16 -1 19 -3 4 -6 -2 -5 -13z"/>
<path d="M3762 1780 c0 -14 2 -19 5 -12 2 6 2 18 0 25 -3 6 -5 1 -5 -13z"/>
<path d="M4070 1770 c0 -5 5 -10 11 -10 5 0 7 5 4 10 -3 6 -8 10 -11 10 -2 0
-4 -4 -4 -10z"/>
</g>
</svg>
